<svg version="1.1" xmlns="http://www.w3.org/2000/svg" xmlns:xlink="http://www.w3.org/1999/xlink" width="600" height="250" style="width: 600px; height: 250px;"><defs><clipPath id="ehSglubiDzyT"><path fill="none" stroke="none" d=" M 62 27 L 595 27 L 595 162 L 62 162 L 62 27 Z"/></clipPath><clipPath id="DrJcDGRTQeBC"><path fill="none" stroke="none" d=" M 62 27 L 595 27 L 595 162 L 62 162 L 62 27 Z"/></clipPath><clipPath id="MQZebgNgBPHN"><path fill="none" stroke="none" d=" M 62 27 L 595 27 L 595 162 L 62 162 L 62 27 Z"/></clipPath></defs><g><g transform="scale(1,1) translate(0.5,0.5)"><rect fill="#FFFFFF" stroke="none" x="0" y="0" width="600" height="250"/><rect fill="#ffffff" stroke="none" x="0" y="0" width="600" height="250"/><rect fill="#FFFFFF" stroke="none" x="62" y="27" width="533" height="135"/><rect fill="#ffffff" stroke="none" x="62" y="27" width="533" height="135"/><g><rect fill="none" stroke="#e5e5e5" x="62" y="27" width="533" height="135" stroke-linejoin="bevel" stroke-miterlimit="10"/></g><g clip-path="url(#ehSglubiDzyT)"><g><g/></g></g><g clip-path="url(#DrJcDGRTQeBC)"><g><g><path fill="none" stroke="#e5e5e5" paint-order="fill stroke markers" d=" M 62 126 L 595 126" stroke-linejoin="bevel" stroke-miterlimit="10"/><path fill="none" stroke="#e5e5e5" paint-order="fill stroke markers" d=" M 62 89 L 595 89" stroke-linejoin="bevel" stroke-miterlimit="10"/><path fill="none" stroke="#e5e5e5" paint-order="fill stroke markers" d=" M 62 53 L 595 53" stroke-linejoin="bevel" stroke-miterlimit="10"/></g></g></g><g clip-path="url(#MQZebgNgBPHN)"><g><g><path fill="none" stroke="none"/><path fill="#5e4fa2" stroke="none" paint-order="stroke fill markers" d=" M 87.42664266426641 145.29297820823246 L 109.01530153015301 145.29297820823246 L 109.01530153015301 162 L 87.42664266426641 162 L 87.42664266426641 145.29297820823246 Z"/><path fill="none" stroke="black" paint-order="fill stroke markers" d=" M 87.42664266426641 145.29297820823246 L 109.01530153015301 145.29297820823246 L 109.01530153015301 162 L 87.42664266426641 162 L 87.42664266426641 145.29297820823246 Z" stroke-linejoin="bevel" stroke-miterlimit="10"/><path fill="#3288bd" stroke="none" paint-order="stroke fill markers" d=" M 111.41404140414039 122.77481840193704 L 133.002700270027 122.77481840193704 L 133.002700270027 162 L 111.41404140414039 162 L 111.41404140414039 122.77481840193704 Z"/><path fill="none" stroke="black" paint-order="fill stroke markers" d=" M 111.41404140414039 122.77481840193704 L 133.002700270027 122.77481840193704 L 133.002700270027 162 L 111.41404140414039 162 L 111.41404140414039 122.77481840193704 Z" stroke-linejoin="bevel" stroke-miterlimit="10"/><path fill="#66c2a5" stroke="none" paint-order="stroke fill markers" d=" M 135.40144014401437 138.75544794188863 L 156.99009900990097 138.75544794188863 L 156.99009900990097 162 L 135.40144014401437 162 L 135.40144014401437 138.75544794188863 Z"/><path fill="none" stroke="black" paint-order="fill stroke markers" d=" M 135.40144014401437 138.75544794188863 L 156.99009900990097 138.75544794188863 L 156.99009900990097 162 L 135.40144014401437 162 L 135.40144014401437 138.75544794188863 Z" stroke-linejoin="bevel" stroke-miterlimit="10"/><path fill="#abdda4" stroke="none" paint-order="stroke fill markers" d=" M 159.38883888388835 127.13317191283294 L 180.97749774977495 127.13317191283294 L 180.97749774977495 162 L 159.38883888388835 162 L 159.38883888388835 127.13317191283294 Z"/><path fill="none" stroke="black" paint-order="fill stroke markers" d=" M 159.38883888388835 127.13317191283294 L 180.97749774977495 127.13317191283294 L 180.97749774977495 162 L 159.38883888388835 162 L 159.38883888388835 127.13317191283294 Z" stroke-linejoin="bevel" stroke-miterlimit="10"/><path fill="#5e4fa2" stroke="none" paint-order="stroke fill markers" d=" M 216.95859585958596 95.17191283292979 L 238.5472547254725 95.17191283292979 L 238.5472547254725 162 L 216.95859585958596 162 L 216.95859585958596 95.17191283292979 Z"/><path fill="none" stroke="black" paint-order="fill stroke markers" d=" M 216.95859585958596 95.17191283292979 L 238.5472547254725 95.17191283292979 L 238.5472547254725 162 L 216.95859585958596 162 L 216.95859585958596 95.17191283292979 Z" stroke-linejoin="bevel" stroke-miterlimit="10"/><path fill="#3288bd" stroke="none" paint-order="stroke fill markers" d=" M 240.94599459945994 90.08716707021792 L 262.53465346534654 90.08716707021792 L 262.53465346534654 162 L 240.94599459945994 162 L 240.94599459945994 90.08716707021792 Z"/><path fill="none" stroke="black" paint-order="fill stroke markers" d=" M 240.94599459945994 90.08716707021792 L 262.53465346534654 90.08716707021792 L 262.53465346534654 162 L 240.94599459945994 162 L 240.94599459945994 90.08716707021792 Z" stroke-linejoin="bevel" stroke-miterlimit="10"/><path fill="#66c2a5" stroke="none" paint-order="stroke fill markers" d=" M 264.933393339334 90.8135593220339 L 286.52205220522046 90.8135593220339 L 286.52205220522046 162 L 264.933393339334 162 L 264.933393339334 90.8135593220339 Z"/><path fill="none" stroke="black" paint-order="fill stroke markers" d=" M 264.933393339334 90.8135593220339 L 286.52205220522046 90.8135593220339 L 286.52205220522046 162 L 264.933393339334 162 L 264.933393339334 90.8135593220339 Z" stroke-linejoin="bevel" stroke-miterlimit="10"/><path fill="#abdda4" stroke="none" paint-order="stroke fill markers" d=" M 288.9207920792079 95.17191283292979 L 310.5094509450945 95.17191283292979 L 310.5094509450945 162 L 288.9207920792079 162 L 288.9207920792079 95.17191283292979 Z"/><path fill="none" stroke="black" paint-order="fill stroke markers" d=" M 288.9207920792079 95.17191283292979 L 310.5094509450945 95.17191283292979 L 310.5094509450945 162 L 288.9207920792079 162 L 288.9207920792079 95.17191283292979 Z" stroke-linejoin="bevel" stroke-miterlimit="10"/><path fill="#5e4fa2" stroke="none" paint-order="stroke fill markers" d=" M 346.49054905490556 71.20096852300243 L 368.07920792079204 71.20096852300243 L 368.07920792079204 162 L 346.49054905490556 162 L 346.49054905490556 71.20096852300243 Z"/><path fill="none" stroke="black" paint-order="fill stroke markers" d=" M 346.49054905490556 71.20096852300243 L 368.07920792079204 71.20096852300243 L 368.07920792079204 162 L 346.49054905490556 162 L 346.49054905490556 71.20096852300243 Z" stroke-linejoin="bevel" stroke-miterlimit="10"/><path fill="#3288bd" stroke="none" paint-order="stroke fill markers" d=" M 370.4779477947794 65.38983050847457 L 392.066606660666 65.38983050847457 L 392.066606660666 162 L 370.4779477947794 162 L 370.4779477947794 65.38983050847457 Z"/><path fill="none" stroke="black" paint-order="fill stroke markers" d=" M 370.4779477947794 65.38983050847457 L 392.066606660666 65.38983050847457 L 392.066606660666 162 L 370.4779477947794 162 L 370.4779477947794 65.38983050847457 Z" stroke-linejoin="bevel" stroke-miterlimit="10"/><path fill="#66c2a5" stroke="none" paint-order="stroke fill markers" d=" M 394.46534653465346 63.93704600484263 L 416.05400540054006 63.93704600484263 L 416.05400540054006 162 L 394.46534653465346 162 L 394.46534653465346 63.93704600484263 Z"/><path fill="none" stroke="black" paint-order="fill stroke markers" d=" M 394.46534653465346 63.93704600484263 L 416.05400540054006 63.93704600484263 L 416.05400540054006 162 L 394.46534653465346 162 L 394.46534653465346 63.93704600484263 Z" stroke-linejoin="bevel" stroke-miterlimit="10"/><path fill="#abdda4" stroke="none" paint-order="stroke fill markers" d=" M 418.45274527452744 58.85230024213077 L 440.04140414041393 58.85230024213077 L 440.04140414041393 162 L 418.45274527452744 162 L 418.45274527452744 58.85230024213077 Z"/><path fill="none" stroke="black" paint-order="fill stroke markers" d=" M 418.45274527452744 58.85230024213077 L 440.04140414041393 58.85230024213077 L 440.04140414041393 162 L 418.45274527452744 162 L 418.45274527452744 58.85230024213077 Z" stroke-linejoin="bevel" stroke-miterlimit="10"/><path fill="#5e4fa2" stroke="none" paint-order="stroke fill markers" d=" M 476.02250225022505 39.2397094430993 L 497.61116111611153 39.2397094430993 L 497.61116111611153 162 L 476.02250225022505 162 L 476.02250225022505 39.2397094430993 Z"/><path fill="none" stroke="black" paint-order="fill stroke markers" d=" M 476.02250225022505 39.2397094430993 L 497.61116111611153 39.2397094430993 L 497.61116111611153 162 L 476.02250225022505 162 L 476.02250225022505 39.2397094430993 Z" stroke-linejoin="bevel" stroke-miterlimit="10"/><path fill="#3288bd" stroke="none" paint-order="stroke fill markers" d=" M 500.009900990099 38.513317191283306 L 521.5985598559856 38.513317191283306 L 521.5985598559856 162 L 500.009900990099 162 L 500.009900990099 38.513317191283306 Z"/><path fill="none" stroke="black" paint-order="fill stroke markers" d=" M 500.009900990099 38.513317191283306 L 521.5985598559856 38.513317191283306 L 521.5985598559856 162 L 500.009900990099 162 L 500.009900990099 38.513317191283306 Z" stroke-linejoin="bevel" stroke-miterlimit="10"/><path fill="#66c2a5" stroke="none" paint-order="stroke fill markers" d=" M 523.9972997299731 35.607748184019385 L 545.5859585958594 35.607748184019385 L 545.5859585958594 162 L 523.9972997299731 162 L 523.9972997299731 35.607748184019385 Z"/><path fill="none" stroke="black" paint-order="fill stroke markers" d=" M 523.9972997299731 35.607748184019385 L 545.5859585958594 35.607748184019385 L 545.5859585958594 162 L 523.9972997299731 162 L 523.9972997299731 35.607748184019385 Z" stroke-linejoin="bevel" stroke-miterlimit="10"/><path fill="#abdda4" stroke="none" paint-order="stroke fill markers" d=" M 547.984698469847 33.428571428571445 L 569.5733573357336 33.428571428571445 L 569.5733573357336 162 L 547.984698469847 162 L 547.984698469847 33.428571428571445 Z"/><path fill="none" stroke="black" paint-order="fill stroke markers" d=" M 547.984698469847 33.428571428571445 L 569.5733573357336 33.428571428571445 L 569.5733573357336 162 L 547.984698469847 162 L 547.984698469847 33.428571428571445 Z" stroke-linejoin="bevel" stroke-miterlimit="10"/></g></g></g><g><g fill="#444444"><path fill="" stroke="none" d=""/><g transform="translate(62,22)"><path fill="none" stroke="none"/><text fill="" stroke="none" font-family="helvetica" font-size="10pt" font-style="normal" font-weight="bold" text-decoration="normal" x="0" y="0" text-anchor="start" dominant-baseline="text-after-edge">Mean fluorescent intensity during titration</text></g></g></g><g><g fill="grey" stroke="lightgrey" stroke-linejoin="bevel" stroke-miterlimit="10" stroke-width="2"><path fill="none" stroke="black" paint-order="fill stroke markers" d=" M 62 162 L 595 162" stroke-linejoin="bevel" stroke-miterlimit="10"/><path fill="none" stroke="black" paint-order="fill stroke markers" d=" M 98 168 L 98 160" stroke-linejoin="bevel" stroke-miterlimit="10"/><path fill="none" stroke="black" paint-order="fill stroke markers" d=" M 122 168 L 122 160" stroke-linejoin="bevel" stroke-miterlimit="10"/><path fill="none" stroke="black" paint-order="fill stroke markers" d=" M 146 168 L 146 160" stroke-linejoin="bevel" stroke-miterlimit="10"/><path fill="none" stroke="black" paint-order="fill stroke markers" d=" M 170 168 L 170 160" stroke-linejoin="bevel" stroke-miterlimit="10"/><path fill="none" stroke="black" paint-order="fill stroke markers" d=" M 228 168 L 228 160" stroke-linejoin="bevel" stroke-miterlimit="10"/><path fill="none" stroke="black" paint-order="fill stroke markers" d=" M 252 168 L 252 160" stroke-linejoin="bevel" stroke-miterlimit="10"/><path fill="none" stroke="black" paint-order="fill stroke markers" d=" M 276 168 L 276 160" stroke-linejoin="bevel" stroke-miterlimit="10"/><path fill="none" stroke="black" paint-order="fill stroke markers" d=" M 300 168 L 300 160" stroke-linejoin="bevel" stroke-miterlimit="10"/><path fill="none" stroke="black" paint-order="fill stroke markers" d=" M 357 168 L 357 160" stroke-linejoin="bevel" stroke-miterlimit="10"/><path fill="none" stroke="black" paint-order="fill stroke markers" d=" M 381 168 L 381 160" stroke-linejoin="bevel" stroke-miterlimit="10"/><path fill="none" stroke="black" paint-order="fill stroke markers" d=" M 405 168 L 405 160" stroke-linejoin="bevel" stroke-miterlimit="10"/><path fill="none" stroke="black" paint-order="fill stroke markers" d=" M 429 168 L 429 160" stroke-linejoin="bevel" stroke-miterlimit="10"/><path fill="none" stroke="black" paint-order="fill stroke markers" d=" M 487 168 L 487 160" stroke-linejoin="bevel" stroke-miterlimit="10"/><path fill="none" stroke="black" paint-order="fill stroke markers" d=" M 511 168 L 511 160" stroke-linejoin="bevel" stroke-miterlimit="10"/><path fill="none" stroke="black" paint-order="fill stroke markers" d=" M 535 168 L 535 160" stroke-linejoin="bevel" stroke-miterlimit="10"/><path fill="" stroke="" paint-order="fill stroke markers" d=" M 559 168 L 559 160" stroke-linejoin="bevel" stroke-miterlimit="10"/><g transform="translate(98,173) rotate(-57.29577951308232,0,0)"><text fill="" stroke="none" font-family="helvetica" font-size="14pt" font-style="normal" font-weight="normal" text-decoration="normal" x="0" y="0" text-anchor="end" dominant-baseline="central">5 min</text><g transform="rotate(57.29577951308232,0,0) translate(-98,-173) translate(122,173) rotate(-57.29577951308232,0,0)"><text fill="" stroke="none" font-family="helvetica" font-size="14pt" font-style="normal" font-weight="normal" text-decoration="normal" x="0" y="0" text-anchor="end" dominant-baseline="central">10 min</text><g transform="rotate(57.29577951308232,0,0) translate(-122,-173) translate(146,173) rotate(-57.29577951308232,0,0)"><text fill="" stroke="none" font-family="helvetica" font-size="14pt" font-style="normal" font-weight="normal" text-decoration="normal" x="0" y="0" text-anchor="end" dominant-baseline="central">20 min</text><g transform="rotate(57.29577951308232,0,0) translate(-146,-173) translate(170,173) rotate(-57.29577951308232,0,0)"><text fill="" stroke="none" font-family="helvetica" font-size="14pt" font-style="normal" font-weight="normal" text-decoration="normal" x="0" y="0" text-anchor="end" dominant-baseline="central">30 min</text><g transform="rotate(57.29577951308232,0,0) translate(-170,-173) translate(228,173) rotate(-57.29577951308232,0,0)"><text fill="" stroke="none" font-family="helvetica" font-size="14pt" font-style="normal" font-weight="normal" text-decoration="normal" x="0" y="0" text-anchor="end" dominant-baseline="central">5 min</text><g transform="rotate(57.29577951308232,0,0) translate(-228,-173) translate(252,173) rotate(-57.29577951308232,0,0)"><text fill="" stroke="none" font-family="helvetica" font-size="14pt" font-style="normal" font-weight="normal" text-decoration="normal" x="0" y="0" text-anchor="end" dominant-baseline="central">10 min</text><g transform="rotate(57.29577951308232,0,0) translate(-252,-173) translate(276,173) rotate(-57.29577951308232,0,0)"><text fill="" stroke="none" font-family="helvetica" font-size="14pt" font-style="normal" font-weight="normal" text-decoration="normal" x="0" y="0" text-anchor="end" dominant-baseline="central">20 min</text><g transform="rotate(57.29577951308232,0,0) translate(-276,-173) translate(300,173) rotate(-57.29577951308232,0,0)"><text fill="" stroke="none" font-family="helvetica" font-size="14pt" font-style="normal" font-weight="normal" text-decoration="normal" x="0" y="0" text-anchor="end" dominant-baseline="central">30 min</text><g transform="rotate(57.29577951308232,0,0) translate(-300,-173) translate(357,173) rotate(-57.29577951308232,0,0)"><text fill="" stroke="none" font-family="helvetica" font-size="14pt" font-style="normal" font-weight="normal" text-decoration="normal" x="0" y="0" text-anchor="end" dominant-baseline="central">5 min</text><g transform="rotate(57.29577951308232,0,0) translate(-357,-173) translate(381,173) rotate(-57.29577951308232,0,0)"><text fill="" stroke="none" font-family="helvetica" font-size="14pt" font-style="normal" font-weight="normal" text-decoration="normal" x="0" y="0" text-anchor="end" dominant-baseline="central">10 min</text><g transform="rotate(57.29577951308232,0,0) translate(-381,-173) translate(405,173) rotate(-57.29577951308232,0,0)"><text fill="" stroke="none" font-family="helvetica" font-size="14pt" font-style="normal" font-weight="normal" text-decoration="normal" x="0" y="0" text-anchor="end" dominant-baseline="central">20 min</text><g transform="rotate(57.29577951308232,0,0) translate(-405,-173) translate(429,173) rotate(-57.29577951308232,0,0)"><text fill="" stroke="none" font-family="helvetica" font-size="14pt" font-style="normal" font-weight="normal" text-decoration="normal" x="0" y="0" text-anchor="end" dominant-baseline="central">30 min</text><g transform="rotate(57.29577951308232,0,0) translate(-429,-173) translate(487,173) rotate(-57.29577951308232,0,0)"><text fill="" stroke="none" font-family="helvetica" font-size="14pt" font-style="normal" font-weight="normal" text-decoration="normal" x="0" y="0" text-anchor="end" dominant-baseline="central">5 min</text><g transform="rotate(57.29577951308232,0,0) translate(-487,-173) translate(511,173) rotate(-57.29577951308232,0,0)"><text fill="" stroke="none" font-family="helvetica" font-size="14pt" font-style="normal" font-weight="normal" text-decoration="normal" x="0" y="0" text-anchor="end" dominant-baseline="central">10 min</text><g transform="rotate(57.29577951308232,0,0) translate(-511,-173) translate(535,173) rotate(-57.29577951308232,0,0)"><text fill="" stroke="none" font-family="helvetica" font-size="14pt" font-style="normal" font-weight="normal" text-decoration="normal" x="0" y="0" text-anchor="end" dominant-baseline="central">20 min</text><g transform="rotate(57.29577951308232,0,0) translate(-535,-173) translate(559,173) rotate(-57.29577951308232,0,0)"><text fill="" stroke="none" font-family="helvetica" font-size="14pt" font-style="normal" font-weight="normal" text-decoration="normal" x="0" y="0" text-anchor="end" dominant-baseline="central">30 min</text><g transform="rotate(57.29577951308232,0,0) translate(-559,-173) translate(134,237) rotate(0,0,0)"><text fill="" stroke="none" font-family="helvetica" font-size="8pt" font-style="normal" font-weight="bold" text-decoration="normal" x="0" y="0" text-anchor="middle" dominant-baseline="hanging">500 um</text><g transform="rotate(0,0,0) translate(-134,-237) translate(264,237) rotate(0,0,0)"><text fill="" stroke="none" font-family="helvetica" font-size="8pt" font-style="normal" font-weight="bold" text-decoration="normal" x="0" y="0" text-anchor="middle" dominant-baseline="hanging">100 um</text><g transform="rotate(0,0,0) translate(-264,-237) translate(393,237) rotate(0,0,0)"><text fill="" stroke="none" font-family="helvetica" font-size="8pt" font-style="normal" font-weight="bold" text-decoration="normal" x="0" y="0" text-anchor="middle" dominant-baseline="hanging">20 um</text><g transform="rotate(0,0,0) translate(-393,-237) translate(523,237) rotate(0,0,0)"><text fill="" stroke="none" font-family="helvetica" font-size="8pt" font-style="normal" font-weight="bold" text-decoration="normal" x="0" y="0" text-anchor="middle" dominant-baseline="hanging">10 um</text><g transform="rotate(0,0,0) translate(-523,-237)"><path fill="none" stroke="" paint-order="fill stroke markers" d=" M 199 238 L 199 165"/><path fill="none" stroke="" paint-order="fill stroke markers" d=" M 329 238 L 329 165"/><path fill="none" stroke="" paint-order="fill stroke markers" d=" M 458 238 L 458 165"/></g></g></g></g></g></g></g></g></g></g></g></g></g></g></g></g></g></g></g></g></g></g></g><g><g fill="#444444"><path fill="none" stroke="black" paint-order="fill stroke markers" d=" M 62 162 L 62 27" stroke-linejoin="bevel" stroke-miterlimit="10"/><path fill="none" stroke="black" paint-order="fill stroke markers" d=" M 56 162 L 64 162" stroke-linejoin="bevel" stroke-miterlimit="10"/><path fill="none" stroke="black" paint-order="fill stroke markers" d=" M 56 126 L 64 126" stroke-linejoin="bevel" stroke-miterlimit="10"/><path fill="none" stroke="black" paint-order="fill stroke markers" d=" M 56 89 L 64 89" stroke-linejoin="bevel" stroke-miterlimit="10"/><path fill="none" stroke="black" paint-order="fill stroke markers" d=" M 56 53 L 64 53" stroke-linejoin="bevel" stroke-miterlimit="10"/><path fill="none" stroke="black" paint-order="fill stroke markers" d=" M 58 162 L 62 162" stroke-linejoin="bevel" stroke-miterlimit="10"/><path fill="none" stroke="black" paint-order="fill stroke markers" d=" M 58 155 L 62 155" stroke-linejoin="bevel" stroke-miterlimit="10"/><path fill="none" stroke="black" paint-order="fill stroke markers" d=" M 58 147 L 62 147" stroke-linejoin="bevel" stroke-miterlimit="10"/><path fill="none" stroke="black" paint-order="fill stroke markers" d=" M 58 140 L 62 140" stroke-linejoin="bevel" stroke-miterlimit="10"/><path fill="none" stroke="black" paint-order="fill stroke markers" d=" M 58 133 L 62 133" stroke-linejoin="bevel" stroke-miterlimit="10"/><path fill="none" stroke="black" paint-order="fill stroke markers" d=" M 58 126 L 62 126" stroke-linejoin="bevel" stroke-miterlimit="10"/><path fill="none" stroke="black" paint-order="fill stroke markers" d=" M 58 118 L 62 118" stroke-linejoin="bevel" stroke-miterlimit="10"/><path fill="none" stroke="black" paint-order="fill stroke markers" d=" M 58 111 L 62 111" stroke-linejoin="bevel" stroke-miterlimit="10"/><path fill="none" stroke="black" paint-order="fill stroke markers" d=" M 58 104 L 62 104" stroke-linejoin="bevel" stroke-miterlimit="10"/><path fill="none" stroke="black" paint-order="fill stroke markers" d=" M 58 97 L 62 97" stroke-linejoin="bevel" stroke-miterlimit="10"/><path fill="none" stroke="black" paint-order="fill stroke markers" d=" M 58 89 L 62 89" stroke-linejoin="bevel" stroke-miterlimit="10"/><path fill="none" stroke="black" paint-order="fill stroke markers" d=" M 58 82 L 62 82" stroke-linejoin="bevel" stroke-miterlimit="10"/><path fill="none" stroke="black" paint-order="fill stroke markers" d=" M 58 75 L 62 75" stroke-linejoin="bevel" stroke-miterlimit="10"/><path fill="none" stroke="black" paint-order="fill stroke markers" d=" M 58 68 L 62 68" stroke-linejoin="bevel" stroke-miterlimit="10"/><path fill="none" stroke="black" paint-order="fill stroke markers" d=" M 58 60 L 62 60" stroke-linejoin="bevel" stroke-miterlimit="10"/><path fill="none" stroke="black" paint-order="fill stroke markers" d=" M 58 53 L 62 53" stroke-linejoin="bevel" stroke-miterlimit="10"/><path fill="none" stroke="black" paint-order="fill stroke markers" d=" M 58 46 L 62 46" stroke-linejoin="bevel" stroke-miterlimit="10"/><path fill="none" stroke="black" paint-order="fill stroke markers" d=" M 58 39 L 62 39" stroke-linejoin="bevel" stroke-miterlimit="10"/><path fill="" stroke="black" paint-order="fill stroke markers" d=" M 58 31 L 62 31" stroke-linejoin="bevel" stroke-miterlimit="10"/><g transform="translate(51,162) rotate(0,0,0)"><text fill="" stroke="none" font-family="helvetica" font-size="14pt" font-style="normal" font-weight="normal" text-decoration="normal" x="0" y="0" text-anchor="end" dominant-baseline="central">0</text><g transform="rotate(0,0,0) translate(-51,-162) translate(51,126) rotate(0,0,0)"><text fill="" stroke="none" font-family="helvetica" font-size="14pt" font-style="normal" font-weight="normal" text-decoration="normal" x="0" y="0" text-anchor="end" dominant-baseline="central">5</text><g transform="rotate(0,0,0) translate(-51,-126) translate(51,89) rotate(0,0,0)"><text fill="" stroke="none" font-family="helvetica" font-size="14pt" font-style="normal" font-weight="normal" text-decoration="normal" x="0" y="0" text-anchor="end" dominant-baseline="central">10</text><g transform="rotate(0,0,0) translate(-51,-89) translate(51,53) rotate(0,0,0)"><text fill="" stroke="none" font-family="helvetica" font-size="14pt" font-style="normal" font-weight="normal" text-decoration="normal" x="0" y="0" text-anchor="end" dominant-baseline="central">15</text><g transform="rotate(0,0,0) translate(-51,-53) translate(23,95) rotate(-90,0,0)"><text fill="" stroke="none" font-family="helvetica" font-size="14pt" font-style="italic" font-weight="normal" text-decoration="normal" x="0" y="0" text-anchor="middle" dominant-baseline="alphabetic">Mean Intensity</text><g transform="rotate(90,0,0) translate(-23,-95)"/></g></g></g></g></g></g></g></g></g></svg>