<svg version="1.1" xmlns="http://www.w3.org/2000/svg" xmlns:xlink="http://www.w3.org/1999/xlink" width="400" height="300" style="width: 400px; height: 300px;"><defs><clipPath id="XMlVdpQKqofk"><path fill="none" stroke="none" d=" M 79 5 L 370 5 L 370 238 L 79 238 L 79 5 Z"/></clipPath><clipPath id="LPnVyWnJcfKz"><path fill="none" stroke="none" d=" M 79 5 L 370 5 L 370 238 L 79 238 L 79 5 Z"/></clipPath><clipPath id="lEUvyXXTdVUi"><path fill="none" stroke="none" d=" M 79 5 L 370 5 L 370 238 L 79 238 L 79 5 Z"/></clipPath><clipPath id="NfmKiMNKKtlF"><path fill="none" stroke="none" d=" M 79 5 L 370 5 L 370 238 L 79 238 L 79 5 Z"/></clipPath></defs><g><g transform="scale(1,1) translate(0.5,0.5)"><rect fill="#FFFFFF" stroke="none" x="0" y="0" width="400" height="300"/><rect fill="#ffffff" stroke="none" x="0" y="0" width="400" height="300"/><rect fill="#FFFFFF" stroke="none" x="79" y="5" width="291" height="233"/><rect fill="#ffffff" stroke="none" x="79" y="5" width="291" height="233"/><g><rect fill="none" stroke="#e5e5e5" x="79" y="5" width="291" height="233" stroke-linejoin="bevel" stroke-miterlimit="10"/></g><g clip-path="url(#XMlVdpQKqofk)"><g><g><path fill="none" stroke="#e5e5e5" paint-order="fill stroke markers" d=" M 87 238 L 87 5" stroke-linejoin="bevel" stroke-miterlimit="10"/><path fill="none" stroke="#e5e5e5" paint-order="fill stroke markers" d=" M 121 238 L 121 5" stroke-linejoin="bevel" stroke-miterlimit="10"/><path fill="none" stroke="#e5e5e5" paint-order="fill stroke markers" d=" M 156 238 L 156 5" stroke-linejoin="bevel" stroke-miterlimit="10"/><path fill="none" stroke="#e5e5e5" paint-order="fill stroke markers" d=" M 190 238 L 190 5" stroke-linejoin="bevel" stroke-miterlimit="10"/><path fill="none" stroke="#e5e5e5" paint-order="fill stroke markers" d=" M 225 238 L 225 5" stroke-linejoin="bevel" stroke-miterlimit="10"/><path fill="none" stroke="#e5e5e5" paint-order="fill stroke markers" d=" M 259 238 L 259 5" stroke-linejoin="bevel" stroke-miterlimit="10"/><path fill="none" stroke="#e5e5e5" paint-order="fill stroke markers" d=" M 293 238 L 293 5" stroke-linejoin="bevel" stroke-miterlimit="10"/><path fill="none" stroke="#e5e5e5" paint-order="fill stroke markers" d=" M 328 238 L 328 5" stroke-linejoin="bevel" stroke-miterlimit="10"/><path fill="none" stroke="#e5e5e5" paint-order="fill stroke markers" d=" M 362 238 L 362 5" stroke-linejoin="bevel" stroke-miterlimit="10"/></g></g></g><g clip-path="url(#LPnVyWnJcfKz)"><g><g><path fill="none" stroke="#e5e5e5" paint-order="fill stroke markers" d=" M 79 227 L 370 227" stroke-linejoin="bevel" stroke-miterlimit="10"/><path fill="none" stroke="#e5e5e5" paint-order="fill stroke markers" d=" M 79 190 L 370 190" stroke-linejoin="bevel" stroke-miterlimit="10"/><path fill="none" stroke="#e5e5e5" paint-order="fill stroke markers" d=" M 79 153 L 370 153" stroke-linejoin="bevel" stroke-miterlimit="10"/><path fill="none" stroke="#e5e5e5" paint-order="fill stroke markers" d=" M 79 116 L 370 116" stroke-linejoin="bevel" stroke-miterlimit="10"/><path fill="none" stroke="#e5e5e5" paint-order="fill stroke markers" d=" M 79 78 L 370 78" stroke-linejoin="bevel" stroke-miterlimit="10"/><path fill="none" stroke="#e5e5e5" paint-order="fill stroke markers" d=" M 79 41 L 370 41" stroke-linejoin="bevel" stroke-miterlimit="10"/></g></g></g><g clip-path="url(#lEUvyXXTdVUi)"><g><g><path fill="none" stroke="none"/><path fill="#9e0142" stroke="none" paint-order="stroke fill markers" d=" M 92.22727272727275 121.50000000000006 L 130.01948051948057 121.50000000000006 L 130.01948051948057 227.4090909090909 L 92.22727272727275 227.4090909090909 L 92.22727272727275 121.50000000000006 Z"/><path fill="none" stroke="black" paint-order="fill stroke markers" d=" M 92.22727272727275 121.50000000000006 L 130.01948051948057 121.50000000000006 L 130.01948051948057 227.4090909090909 L 92.22727272727275 227.4090909090909 L 92.22727272727275 121.50000000000006 Z" stroke-linejoin="bevel" stroke-miterlimit="10"/><path fill="#9e0142" stroke="none" paint-order="stroke fill markers" d=" M 130.01948051948057 121.50000000000001 L 167.81168831168833 121.50000000000001 L 167.81168831168833 227.4090909090909 L 130.01948051948057 227.4090909090909 L 130.01948051948057 121.50000000000001 Z"/><path fill="none" stroke="black" paint-order="fill stroke markers" d=" M 130.01948051948057 121.50000000000001 L 167.81168831168833 121.50000000000001 L 167.81168831168833 227.4090909090909 L 130.01948051948057 227.4090909090909 L 130.01948051948057 121.50000000000001 Z" stroke-linejoin="bevel" stroke-miterlimit="10"/><path fill="#9e0142" stroke="none" paint-order="stroke fill markers" d=" M 167.81168831168833 227.4090909090909 L 205.60389610389615 227.4090909090909 L 205.60389610389615 227.4090909090909 L 167.81168831168833 227.4090909090909 L 167.81168831168833 227.4090909090909 Z"/><path fill="none" stroke="black" paint-order="fill stroke markers" d=" M 167.81168831168833 227.4090909090909 L 205.60389610389615 227.4090909090909 L 205.60389610389615 227.4090909090909 L 167.81168831168833 227.4090909090909 L 167.81168831168833 227.4090909090909 Z" stroke-linejoin="bevel" stroke-miterlimit="10"/><path fill="#9e0142" stroke="none" paint-order="stroke fill markers" d=" M 205.60389610389615 15.590909090909122 L 243.3961038961039 15.590909090909122 L 243.3961038961039 227.4090909090909 L 205.60389610389615 227.4090909090909 L 205.60389610389615 15.590909090909122 Z"/><path fill="none" stroke="black" paint-order="fill stroke markers" d=" M 205.60389610389615 15.590909090909122 L 243.3961038961039 15.590909090909122 L 243.3961038961039 227.4090909090909 L 205.60389610389615 227.4090909090909 L 205.60389610389615 15.590909090909122 Z" stroke-linejoin="bevel" stroke-miterlimit="10"/><path fill="#9e0142" stroke="none" paint-order="stroke fill markers" d=" M 243.3961038961039 174.45454545454547 L 281.1883116883117 174.45454545454547 L 281.1883116883117 227.4090909090909 L 243.3961038961039 227.4090909090909 L 243.3961038961039 174.45454545454547 Z"/><path fill="none" stroke="black" paint-order="fill stroke markers" d=" M 243.3961038961039 174.45454545454547 L 281.1883116883117 174.45454545454547 L 281.1883116883117 227.4090909090909 L 243.3961038961039 227.4090909090909 L 243.3961038961039 174.45454545454547 Z" stroke-linejoin="bevel" stroke-miterlimit="10"/><path fill="#9e0142" stroke="none" paint-order="stroke fill markers" d=" M 281.1883116883117 68.54545454545482 L 318.98051948051955 68.54545454545482 L 318.98051948051955 227.4090909090909 L 281.1883116883117 227.4090909090909 L 281.1883116883117 68.54545454545482 Z"/><path fill="none" stroke="black" paint-order="fill stroke markers" d=" M 281.1883116883117 68.54545454545482 L 318.98051948051955 68.54545454545482 L 318.98051948051955 227.4090909090909 L 281.1883116883117 227.4090909090909 L 281.1883116883117 68.54545454545482 Z" stroke-linejoin="bevel" stroke-miterlimit="10"/><path fill="#9e0142" stroke="none" paint-order="stroke fill markers" d=" M 318.98051948051955 15.590909090909122 L 356.77272727272737 15.590909090909122 L 356.77272727272737 227.4090909090909 L 318.98051948051955 227.4090909090909 L 318.98051948051955 15.590909090909122 Z"/><path fill="none" stroke="black" paint-order="fill stroke markers" d=" M 318.98051948051955 15.590909090909122 L 356.77272727272737 15.590909090909122 L 356.77272727272737 227.4090909090909 L 318.98051948051955 227.4090909090909 L 318.98051948051955 15.590909090909122 Z" stroke-linejoin="bevel" stroke-miterlimit="10"/></g></g></g><g/><g/><g><g fill="#444444"><path fill="none" stroke="black" paint-order="fill stroke markers" d=" M 79 238 L 370 238" stroke-linejoin="bevel" stroke-miterlimit="10"/><path fill="none" stroke="black" paint-order="fill stroke markers" d=" M 87 244 L 87 236" stroke-linejoin="bevel" stroke-miterlimit="10"/><path fill="none" stroke="black" paint-order="fill stroke markers" d=" M 121 244 L 121 236" stroke-linejoin="bevel" stroke-miterlimit="10"/><path fill="none" stroke="black" paint-order="fill stroke markers" d=" M 156 244 L 156 236" stroke-linejoin="bevel" stroke-miterlimit="10"/><path fill="none" stroke="black" paint-order="fill stroke markers" d=" M 190 244 L 190 236" stroke-linejoin="bevel" stroke-miterlimit="10"/><path fill="none" stroke="black" paint-order="fill stroke markers" d=" M 225 244 L 225 236" stroke-linejoin="bevel" stroke-miterlimit="10"/><path fill="none" stroke="black" paint-order="fill stroke markers" d=" M 259 244 L 259 236" stroke-linejoin="bevel" stroke-miterlimit="10"/><path fill="none" stroke="black" paint-order="fill stroke markers" d=" M 293 244 L 293 236" stroke-linejoin="bevel" stroke-miterlimit="10"/><path fill="none" stroke="black" paint-order="fill stroke markers" d=" M 328 244 L 328 236" stroke-linejoin="bevel" stroke-miterlimit="10"/><path fill="none" stroke="black" paint-order="fill stroke markers" d=" M 362 244 L 362 236" stroke-linejoin="bevel" stroke-miterlimit="10"/><path fill="none" stroke="black" paint-order="fill stroke markers" d=" M 80 242 L 80 238" stroke-linejoin="bevel" stroke-miterlimit="10"/><path fill="none" stroke="black" paint-order="fill stroke markers" d=" M 87 242 L 87 238" stroke-linejoin="bevel" stroke-miterlimit="10"/><path fill="none" stroke="black" paint-order="fill stroke markers" d=" M 94 242 L 94 238" stroke-linejoin="bevel" stroke-miterlimit="10"/><path fill="none" stroke="black" paint-order="fill stroke markers" d=" M 101 242 L 101 238" stroke-linejoin="bevel" stroke-miterlimit="10"/><path fill="none" stroke="black" paint-order="fill stroke markers" d=" M 108 242 L 108 238" stroke-linejoin="bevel" stroke-miterlimit="10"/><path fill="none" stroke="black" paint-order="fill stroke markers" d=" M 115 242 L 115 238" stroke-linejoin="bevel" stroke-miterlimit="10"/><path fill="none" stroke="black" paint-order="fill stroke markers" d=" M 121 242 L 121 238" stroke-linejoin="bevel" stroke-miterlimit="10"/><path fill="none" stroke="black" paint-order="fill stroke markers" d=" M 128 242 L 128 238" stroke-linejoin="bevel" stroke-miterlimit="10"/><path fill="none" stroke="black" paint-order="fill stroke markers" d=" M 135 242 L 135 238" stroke-linejoin="bevel" stroke-miterlimit="10"/><path fill="none" stroke="black" paint-order="fill stroke markers" d=" M 142 242 L 142 238" stroke-linejoin="bevel" stroke-miterlimit="10"/><path fill="none" stroke="black" paint-order="fill stroke markers" d=" M 149 242 L 149 238" stroke-linejoin="bevel" stroke-miterlimit="10"/><path fill="none" stroke="black" paint-order="fill stroke markers" d=" M 156 242 L 156 238" stroke-linejoin="bevel" stroke-miterlimit="10"/><path fill="none" stroke="black" paint-order="fill stroke markers" d=" M 163 242 L 163 238" stroke-linejoin="bevel" stroke-miterlimit="10"/><path fill="none" stroke="black" paint-order="fill stroke markers" d=" M 170 242 L 170 238" stroke-linejoin="bevel" stroke-miterlimit="10"/><path fill="none" stroke="black" paint-order="fill stroke markers" d=" M 176 242 L 176 238" stroke-linejoin="bevel" stroke-miterlimit="10"/><path fill="none" stroke="black" paint-order="fill stroke markers" d=" M 183 242 L 183 238" stroke-linejoin="bevel" stroke-miterlimit="10"/><path fill="none" stroke="black" paint-order="fill stroke markers" d=" M 190 242 L 190 238" stroke-linejoin="bevel" stroke-miterlimit="10"/><path fill="none" stroke="black" paint-order="fill stroke markers" d=" M 197 242 L 197 238" stroke-linejoin="bevel" stroke-miterlimit="10"/><path fill="none" stroke="black" paint-order="fill stroke markers" d=" M 204 242 L 204 238" stroke-linejoin="bevel" stroke-miterlimit="10"/><path fill="none" stroke="black" paint-order="fill stroke markers" d=" M 211 242 L 211 238" stroke-linejoin="bevel" stroke-miterlimit="10"/><path fill="none" stroke="black" paint-order="fill stroke markers" d=" M 218 242 L 218 238" stroke-linejoin="bevel" stroke-miterlimit="10"/><path fill="none" stroke="black" paint-order="fill stroke markers" d=" M 225 242 L 225 238" stroke-linejoin="bevel" stroke-miterlimit="10"/><path fill="none" stroke="black" paint-order="fill stroke markers" d=" M 231 242 L 231 238" stroke-linejoin="bevel" stroke-miterlimit="10"/><path fill="none" stroke="black" paint-order="fill stroke markers" d=" M 238 242 L 238 238" stroke-linejoin="bevel" stroke-miterlimit="10"/><path fill="none" stroke="black" paint-order="fill stroke markers" d=" M 245 242 L 245 238" stroke-linejoin="bevel" stroke-miterlimit="10"/><path fill="none" stroke="black" paint-order="fill stroke markers" d=" M 252 242 L 252 238" stroke-linejoin="bevel" stroke-miterlimit="10"/><path fill="none" stroke="black" paint-order="fill stroke markers" d=" M 259 242 L 259 238" stroke-linejoin="bevel" stroke-miterlimit="10"/><path fill="none" stroke="black" paint-order="fill stroke markers" d=" M 266 242 L 266 238" stroke-linejoin="bevel" stroke-miterlimit="10"/><path fill="none" stroke="black" paint-order="fill stroke markers" d=" M 273 242 L 273 238" stroke-linejoin="bevel" stroke-miterlimit="10"/><path fill="none" stroke="black" paint-order="fill stroke markers" d=" M 279 242 L 279 238" stroke-linejoin="bevel" stroke-miterlimit="10"/><path fill="none" stroke="black" paint-order="fill stroke markers" d=" M 286 242 L 286 238" stroke-linejoin="bevel" stroke-miterlimit="10"/><path fill="none" stroke="black" paint-order="fill stroke markers" d=" M 293 242 L 293 238" stroke-linejoin="bevel" stroke-miterlimit="10"/><path fill="none" stroke="black" paint-order="fill stroke markers" d=" M 300 242 L 300 238" stroke-linejoin="bevel" stroke-miterlimit="10"/><path fill="none" stroke="black" paint-order="fill stroke markers" d=" M 307 242 L 307 238" stroke-linejoin="bevel" stroke-miterlimit="10"/><path fill="none" stroke="black" paint-order="fill stroke markers" d=" M 314 242 L 314 238" stroke-linejoin="bevel" stroke-miterlimit="10"/><path fill="none" stroke="black" paint-order="fill stroke markers" d=" M 321 242 L 321 238" stroke-linejoin="bevel" stroke-miterlimit="10"/><path fill="none" stroke="black" paint-order="fill stroke markers" d=" M 328 242 L 328 238" stroke-linejoin="bevel" stroke-miterlimit="10"/><path fill="none" stroke="black" paint-order="fill stroke markers" d=" M 334 242 L 334 238" stroke-linejoin="bevel" stroke-miterlimit="10"/><path fill="none" stroke="black" paint-order="fill stroke markers" d=" M 341 242 L 341 238" stroke-linejoin="bevel" stroke-miterlimit="10"/><path fill="none" stroke="black" paint-order="fill stroke markers" d=" M 348 242 L 348 238" stroke-linejoin="bevel" stroke-miterlimit="10"/><path fill="none" stroke="black" paint-order="fill stroke markers" d=" M 355 242 L 355 238" stroke-linejoin="bevel" stroke-miterlimit="10"/><path fill="none" stroke="black" paint-order="fill stroke markers" d=" M 362 242 L 362 238" stroke-linejoin="bevel" stroke-miterlimit="10"/><path fill="" stroke="black" paint-order="fill stroke markers" d=" M 369 242 L 369 238" stroke-linejoin="bevel" stroke-miterlimit="10"/><g transform="translate(87,249) rotate(0,0,0)"><text fill="" stroke="none" font-family="helvetica" font-size="14pt" font-style="normal" font-weight="normal" text-decoration="normal" x="0" y="0" text-anchor="middle" dominant-baseline="hanging">2</text><g transform="rotate(0,0,0) translate(-87,-249) translate(121,249) rotate(0,0,0)"><text fill="" stroke="none" font-family="helvetica" font-size="14pt" font-style="normal" font-weight="normal" text-decoration="normal" x="0" y="0" text-anchor="middle" dominant-baseline="hanging">4</text><g transform="rotate(0,0,0) translate(-121,-249) translate(156,249) rotate(0,0,0)"><text fill="" stroke="none" font-family="helvetica" font-size="14pt" font-style="normal" font-weight="normal" text-decoration="normal" x="0" y="0" text-anchor="middle" dominant-baseline="hanging">6</text><g transform="rotate(0,0,0) translate(-156,-249) translate(190,249) rotate(0,0,0)"><text fill="" stroke="none" font-family="helvetica" font-size="14pt" font-style="normal" font-weight="normal" text-decoration="normal" x="0" y="0" text-anchor="middle" dominant-baseline="hanging">8</text><g transform="rotate(0,0,0) translate(-190,-249) translate(225,249) rotate(0,0,0)"><text fill="" stroke="none" font-family="helvetica" font-size="14pt" font-style="normal" font-weight="normal" text-decoration="normal" x="0" y="0" text-anchor="middle" dominant-baseline="hanging">10</text><g transform="rotate(0,0,0) translate(-225,-249) translate(259,249) rotate(0,0,0)"><text fill="" stroke="none" font-family="helvetica" font-size="14pt" font-style="normal" font-weight="normal" text-decoration="normal" x="0" y="0" text-anchor="middle" dominant-baseline="hanging">12</text><g transform="rotate(0,0,0) translate(-259,-249) translate(293,249) rotate(0,0,0)"><text fill="" stroke="none" font-family="helvetica" font-size="14pt" font-style="normal" font-weight="normal" text-decoration="normal" x="0" y="0" text-anchor="middle" dominant-baseline="hanging">14</text><g transform="rotate(0,0,0) translate(-293,-249) translate(328,249) rotate(0,0,0)"><text fill="" stroke="none" font-family="helvetica" font-size="14pt" font-style="normal" font-weight="normal" text-decoration="normal" x="0" y="0" text-anchor="middle" dominant-baseline="hanging">16</text><g transform="rotate(0,0,0) translate(-328,-249) translate(362,249) rotate(0,0,0)"><text fill="" stroke="none" font-family="helvetica" font-size="14pt" font-style="normal" font-weight="normal" text-decoration="normal" x="0" y="0" text-anchor="middle" dominant-baseline="hanging">18</text><g transform="rotate(0,0,0) translate(-362,-249) translate(225,277) rotate(0,0,0)"><text fill="" stroke="none" font-family="helvetica" font-size="14pt" font-style="italic" font-weight="normal" text-decoration="normal" x="0" y="0" text-anchor="middle" dominant-baseline="hanging">Intensities</text><g transform="rotate(0,0,0) translate(-225,-277)"/></g></g></g></g></g></g></g></g></g></g></g></g><g><g fill="#444444"><path fill="none" stroke="black" paint-order="fill stroke markers" d=" M 79 238 L 79 5" stroke-linejoin="bevel" stroke-miterlimit="10"/><path fill="none" stroke="black" paint-order="fill stroke markers" d=" M 73 227 L 81 227" stroke-linejoin="bevel" stroke-miterlimit="10"/><path fill="none" stroke="black" paint-order="fill stroke markers" d=" M 73 190 L 81 190" stroke-linejoin="bevel" stroke-miterlimit="10"/><path fill="none" stroke="black" paint-order="fill stroke markers" d=" M 73 153 L 81 153" stroke-linejoin="bevel" stroke-miterlimit="10"/><path fill="none" stroke="black" paint-order="fill stroke markers" d=" M 73 116 L 81 116" stroke-linejoin="bevel" stroke-miterlimit="10"/><path fill="none" stroke="black" paint-order="fill stroke markers" d=" M 73 78 L 81 78" stroke-linejoin="bevel" stroke-miterlimit="10"/><path fill="none" stroke="black" paint-order="fill stroke markers" d=" M 73 41 L 81 41" stroke-linejoin="bevel" stroke-miterlimit="10"/><path fill="none" stroke="black" paint-order="fill stroke markers" d=" M 75 235 L 79 235" stroke-linejoin="bevel" stroke-miterlimit="10"/><path fill="none" stroke="black" paint-order="fill stroke markers" d=" M 75 227 L 79 227" stroke-linejoin="bevel" stroke-miterlimit="10"/><path fill="none" stroke="black" paint-order="fill stroke markers" d=" M 75 220 L 79 220" stroke-linejoin="bevel" stroke-miterlimit="10"/><path fill="none" stroke="black" paint-order="fill stroke markers" d=" M 75 212 L 79 212" stroke-linejoin="bevel" stroke-miterlimit="10"/><path fill="none" stroke="black" paint-order="fill stroke markers" d=" M 75 205 L 79 205" stroke-linejoin="bevel" stroke-miterlimit="10"/><path fill="none" stroke="black" paint-order="fill stroke markers" d=" M 75 198 L 79 198" stroke-linejoin="bevel" stroke-miterlimit="10"/><path fill="none" stroke="black" paint-order="fill stroke markers" d=" M 75 190 L 79 190" stroke-linejoin="bevel" stroke-miterlimit="10"/><path fill="none" stroke="black" paint-order="fill stroke markers" d=" M 75 183 L 79 183" stroke-linejoin="bevel" stroke-miterlimit="10"/><path fill="none" stroke="black" paint-order="fill stroke markers" d=" M 75 175 L 79 175" stroke-linejoin="bevel" stroke-miterlimit="10"/><path fill="none" stroke="black" paint-order="fill stroke markers" d=" M 75 168 L 79 168" stroke-linejoin="bevel" stroke-miterlimit="10"/><path fill="none" stroke="black" paint-order="fill stroke markers" d=" M 75 160 L 79 160" stroke-linejoin="bevel" stroke-miterlimit="10"/><path fill="none" stroke="black" paint-order="fill stroke markers" d=" M 75 153 L 79 153" stroke-linejoin="bevel" stroke-miterlimit="10"/><path fill="none" stroke="black" paint-order="fill stroke markers" d=" M 75 145 L 79 145" stroke-linejoin="bevel" stroke-miterlimit="10"/><path fill="none" stroke="black" paint-order="fill stroke markers" d=" M 75 138 L 79 138" stroke-linejoin="bevel" stroke-miterlimit="10"/><path fill="none" stroke="black" paint-order="fill stroke markers" d=" M 75 130 L 79 130" stroke-linejoin="bevel" stroke-miterlimit="10"/><path fill="none" stroke="black" paint-order="fill stroke markers" d=" M 75 123 L 79 123" stroke-linejoin="bevel" stroke-miterlimit="10"/><path fill="none" stroke="black" paint-order="fill stroke markers" d=" M 75 116 L 79 116" stroke-linejoin="bevel" stroke-miterlimit="10"/><path fill="none" stroke="black" paint-order="fill stroke markers" d=" M 75 108 L 79 108" stroke-linejoin="bevel" stroke-miterlimit="10"/><path fill="none" stroke="black" paint-order="fill stroke markers" d=" M 75 101 L 79 101" stroke-linejoin="bevel" stroke-miterlimit="10"/><path fill="none" stroke="black" paint-order="fill stroke markers" d=" M 75 93 L 79 93" stroke-linejoin="bevel" stroke-miterlimit="10"/><path fill="none" stroke="black" paint-order="fill stroke markers" d=" M 75 86 L 79 86" stroke-linejoin="bevel" stroke-miterlimit="10"/><path fill="none" stroke="black" paint-order="fill stroke markers" d=" M 75 78 L 79 78" stroke-linejoin="bevel" stroke-miterlimit="10"/><path fill="none" stroke="black" paint-order="fill stroke markers" d=" M 75 71 L 79 71" stroke-linejoin="bevel" stroke-miterlimit="10"/><path fill="none" stroke="black" paint-order="fill stroke markers" d=" M 75 63 L 79 63" stroke-linejoin="bevel" stroke-miterlimit="10"/><path fill="none" stroke="black" paint-order="fill stroke markers" d=" M 75 56 L 79 56" stroke-linejoin="bevel" stroke-miterlimit="10"/><path fill="none" stroke="black" paint-order="fill stroke markers" d=" M 75 48 L 79 48" stroke-linejoin="bevel" stroke-miterlimit="10"/><path fill="none" stroke="black" paint-order="fill stroke markers" d=" M 75 41 L 79 41" stroke-linejoin="bevel" stroke-miterlimit="10"/><path fill="none" stroke="black" paint-order="fill stroke markers" d=" M 75 34 L 79 34" stroke-linejoin="bevel" stroke-miterlimit="10"/><path fill="none" stroke="black" paint-order="fill stroke markers" d=" M 75 26 L 79 26" stroke-linejoin="bevel" stroke-miterlimit="10"/><path fill="none" stroke="black" paint-order="fill stroke markers" d=" M 75 19 L 79 19" stroke-linejoin="bevel" stroke-miterlimit="10"/><path fill="" stroke="black" paint-order="fill stroke markers" d=" M 75 11 L 79 11" stroke-linejoin="bevel" stroke-miterlimit="10"/><g transform="translate(68,227) rotate(0,0,0)"><text fill="" stroke="none" font-family="helvetica" font-size="14pt" font-style="normal" font-weight="normal" text-decoration="normal" x="0" y="0" text-anchor="end" dominant-baseline="central">0</text><g transform="rotate(0,0,0) translate(-68,-227) translate(68,190) rotate(0,0,0)"><text fill="" stroke="none" font-family="helvetica" font-size="14pt" font-style="normal" font-weight="normal" text-decoration="normal" x="0" y="0" text-anchor="end" dominant-baseline="central">0.02</text><g transform="rotate(0,0,0) translate(-68,-190) translate(68,153) rotate(0,0,0)"><text fill="" stroke="none" font-family="helvetica" font-size="14pt" font-style="normal" font-weight="normal" text-decoration="normal" x="0" y="0" text-anchor="end" dominant-baseline="central">0.04</text><g transform="rotate(0,0,0) translate(-68,-153) translate(68,116) rotate(0,0,0)"><text fill="" stroke="none" font-family="helvetica" font-size="14pt" font-style="normal" font-weight="normal" text-decoration="normal" x="0" y="0" text-anchor="end" dominant-baseline="central">0.06</text><g transform="rotate(0,0,0) translate(-68,-116) translate(68,78) rotate(0,0,0)"><text fill="" stroke="none" font-family="helvetica" font-size="14pt" font-style="normal" font-weight="normal" text-decoration="normal" x="0" y="0" text-anchor="end" dominant-baseline="central">0.08</text><g transform="rotate(0,0,0) translate(-68,-78) translate(68,41) rotate(0,0,0)"><text fill="" stroke="none" font-family="helvetica" font-size="14pt" font-style="normal" font-weight="normal" text-decoration="normal" x="0" y="0" text-anchor="end" dominant-baseline="central">0.1</text><g transform="rotate(0,0,0) translate(-68,-41) translate(22,122) rotate(-90,0,0)"><text fill="" stroke="none" font-family="helvetica" font-size="14pt" font-style="italic" font-weight="normal" text-decoration="normal" x="0" y="0" text-anchor="middle" dominant-baseline="alphabetic">Prob(Intensities)</text><g transform="rotate(90,0,0) translate(-22,-122)"/></g></g></g></g></g></g></g></g></g><g clip-path="url(#NfmKiMNKKtlF)"><g/></g></g></g></svg>