<svg version="1.1" xmlns="http://www.w3.org/2000/svg" xmlns:xlink="http://www.w3.org/1999/xlink" width="500" height="300" style="width: 500px; height: 300px;"><defs><clipPath id="kuvitdLGcwDX"><path fill="none" stroke="none" d=" M 64 5 L 470 5 L 470 236 L 64 236 L 64 5 Z"/></clipPath><clipPath id="RpOaBoJwiMQI"><path fill="none" stroke="none" d=" M 64 5 L 470 5 L 470 236 L 64 236 L 64 5 Z"/></clipPath><clipPath id="rUFopzIusVaA"><path fill="none" stroke="none" d=" M 64 5 L 470 5 L 470 236 L 64 236 L 64 5 Z"/></clipPath><clipPath id="TMEgNMyOCefv"><path fill="none" stroke="none" d=" M 64 5 L 470 5 L 470 236 L 64 236 L 64 5 Z"/></clipPath><clipPath id="fFTtoqZxVhxv"><path fill="none" stroke="none" d=" M 64 5 L 470 5 L 470 236 L 64 236 L 64 5 Z"/></clipPath><clipPath id="ysfwEILGcdht"><path fill="none" stroke="none" d=" M 64 5 L 470 5 L 470 236 L 64 236 L 64 5 Z"/></clipPath><clipPath id="yTxQTIqPsCrq"><path fill="none" stroke="none" d=" M 64 5 L 470 5 L 470 236 L 64 236 L 64 5 Z"/></clipPath><clipPath id="ZvRZfJNnaVuB"><path fill="none" stroke="none" d=" M 64 5 L 470 5 L 470 236 L 64 236 L 64 5 Z"/></clipPath><clipPath id="GDkRMiyikZdE"><path fill="none" stroke="none" d=" M 64 5 L 470 5 L 470 236 L 64 236 L 64 5 Z"/></clipPath><clipPath id="OJQPFCfUnhKl"><path fill="none" stroke="none" d=" M 64 5 L 470 5 L 470 236 L 64 236 L 64 5 Z"/></clipPath><clipPath id="isGQsBEsxHCn"><path fill="none" stroke="none" d=" M 64 5 L 470 5 L 470 236 L 64 236 L 64 5 Z"/></clipPath><clipPath id="ZoGzaeALJeUk"><path fill="none" stroke="none" d=" M 64 5 L 470 5 L 470 236 L 64 236 L 64 5 Z"/></clipPath></defs><g><g transform="scale(1,1) translate(0.5,0.5)"><rect fill="#FFFFFF" stroke="none" x="0" y="0" width="500" height="300"/><rect fill="#ffffff" stroke="none" x="0" y="0" width="500" height="300"/><rect fill="#FFFFFF" stroke="none" x="64" y="5" width="406" height="231"/><rect fill="#ffffff" stroke="none" x="64" y="5" width="406" height="231"/><g><rect fill="none" stroke="#e5e5e5" x="64" y="5" width="406" height="231" stroke-linejoin="bevel" stroke-miterlimit="10"/></g><g clip-path="url(#kuvitdLGcwDX)"><g><g><path fill="none" stroke="#e5e5e5" paint-order="fill stroke markers" d=" M 82 236 L 82 5" stroke-linejoin="bevel" stroke-miterlimit="10"/><path fill="none" stroke="#e5e5e5" paint-order="fill stroke markers" d=" M 156 236 L 156 5" stroke-linejoin="bevel" stroke-miterlimit="10"/><path fill="none" stroke="#e5e5e5" paint-order="fill stroke markers" d=" M 230 236 L 230 5" stroke-linejoin="bevel" stroke-miterlimit="10"/><path fill="none" stroke="#e5e5e5" paint-order="fill stroke markers" d=" M 304 236 L 304 5" stroke-linejoin="bevel" stroke-miterlimit="10"/><path fill="none" stroke="#e5e5e5" paint-order="fill stroke markers" d=" M 378 236 L 378 5" stroke-linejoin="bevel" stroke-miterlimit="10"/><path fill="none" stroke="#e5e5e5" paint-order="fill stroke markers" d=" M 452 236 L 452 5" stroke-linejoin="bevel" stroke-miterlimit="10"/></g></g></g><g clip-path="url(#RpOaBoJwiMQI)"><g><g><path fill="none" stroke="#e5e5e5" paint-order="fill stroke markers" d=" M 64 230 L 470 230" stroke-linejoin="bevel" stroke-miterlimit="10"/><path fill="none" stroke="#e5e5e5" paint-order="fill stroke markers" d=" M 64 202 L 470 202" stroke-linejoin="bevel" stroke-miterlimit="10"/><path fill="none" stroke="#e5e5e5" paint-order="fill stroke markers" d=" M 64 175 L 470 175" stroke-linejoin="bevel" stroke-miterlimit="10"/><path fill="none" stroke="#e5e5e5" paint-order="fill stroke markers" d=" M 64 148 L 470 148" stroke-linejoin="bevel" stroke-miterlimit="10"/><path fill="none" stroke="#e5e5e5" paint-order="fill stroke markers" d=" M 64 121 L 470 121" stroke-linejoin="bevel" stroke-miterlimit="10"/><path fill="none" stroke="#e5e5e5" paint-order="fill stroke markers" d=" M 64 93 L 470 93" stroke-linejoin="bevel" stroke-miterlimit="10"/><path fill="none" stroke="#e5e5e5" paint-order="fill stroke markers" d=" M 64 66 L 470 66" stroke-linejoin="bevel" stroke-miterlimit="10"/><path fill="none" stroke="#e5e5e5" paint-order="fill stroke markers" d=" M 64 39 L 470 39" stroke-linejoin="bevel" stroke-miterlimit="10"/><path fill="none" stroke="#e5e5e5" paint-order="fill stroke markers" d=" M 64 11 L 470 11" stroke-linejoin="bevel" stroke-miterlimit="10"/></g></g></g><g clip-path="url(#rUFopzIusVaA)"><g><g><path fill="none" stroke="none"/><path fill="#5e4fa2" stroke="black" paint-order="fill stroke markers" d=" M 92.45454545454547 225.5 A 10 10 0 1 1 92.45454045454588 225.49000000166666" fill-opacity="0.5" stroke-linejoin="bevel" stroke-miterlimit="10" stroke-opacity="0.5"/><path fill="#5e4fa2" stroke="black" paint-order="fill stroke markers" d=" M 166.27272727272728 131.4090909090909 A 10 10 0 1 1 166.2727222727277 131.39909091075756" fill-opacity="0.5" stroke-linejoin="bevel" stroke-miterlimit="10" stroke-opacity="0.5"/><path fill="#5e4fa2" stroke="black" paint-order="fill stroke markers" d=" M 313.90909090909093 86.4090909090909 A 10 10 0 1 1 313.90908590909135 86.39909091075756" fill-opacity="0.5" stroke-linejoin="bevel" stroke-miterlimit="10" stroke-opacity="0.5"/><path fill="#5e4fa2" stroke="black" paint-order="fill stroke markers" d=" M 461.5454545454546 26.409090909090907 A 10 10 0 1 1 461.545449545455 26.399090910757568" fill-opacity="0.5" stroke-linejoin="bevel" stroke-miterlimit="10" stroke-opacity="0.5"/></g></g></g><g clip-path="url(#TMEgNMyOCefv)"><g><g><path fill="none" stroke="none"/><path fill="none" stroke="#5e4fa2" paint-order="fill stroke markers" d=" M 82.45454545454547 225.5 L 156.27272727272728 131.4090909090909 L 303.90909090909093 86.4090909090909 L 451.5454545454546 26.409090909090907" stroke-linejoin="bevel" stroke-miterlimit="10" stroke-width="2"/></g></g></g><g clip-path="url(#fFTtoqZxVhxv)"><g><g><path fill="none" stroke="none"/><path fill="#3288bd" stroke="black" paint-order="fill stroke markers" d=" M 92.45454545454547 183.22727272727272 A 10 10 0 1 1 92.45454045454588 183.21727272893938" fill-opacity="0.5" stroke-linejoin="bevel" stroke-miterlimit="10" stroke-opacity="0.5"/><path fill="#3288bd" stroke="black" paint-order="fill stroke markers" d=" M 166.27272727272728 121.86363636363635 A 10 10 0 1 1 166.2727222727277 121.853636365303" fill-opacity="0.5" stroke-linejoin="bevel" stroke-miterlimit="10" stroke-opacity="0.5"/><path fill="#3288bd" stroke="black" paint-order="fill stroke markers" d=" M 313.90909090909093 75.49999999999997 A 10 10 0 1 1 313.90908590909135 75.49000000166663" fill-opacity="0.5" stroke-linejoin="bevel" stroke-miterlimit="10" stroke-opacity="0.5"/><path fill="#3288bd" stroke="black" paint-order="fill stroke markers" d=" M 461.5454545454546 25.045454545454533 A 10 10 0 1 1 461.545449545455 25.035454547121194" fill-opacity="0.5" stroke-linejoin="bevel" stroke-miterlimit="10" stroke-opacity="0.5"/></g></g></g><g clip-path="url(#ysfwEILGcdht)"><g><g><path fill="none" stroke="none"/><path fill="none" stroke="#3288bd" paint-order="fill stroke markers" d=" M 82.45454545454547 183.22727272727272 L 156.27272727272728 121.86363636363635 L 303.90909090909093 75.49999999999997 L 451.5454545454546 25.045454545454533" stroke-linejoin="bevel" stroke-miterlimit="10" stroke-width="2"/></g></g></g><g clip-path="url(#yTxQTIqPsCrq)"><g><g><path fill="none" stroke="none"/><path fill="#66c2a5" stroke="black" paint-order="fill stroke markers" d=" M 92.45454545454547 213.22727272727272 A 10 10 0 1 1 92.45454045454588 213.21727272893938" fill-opacity="0.5" stroke-linejoin="bevel" stroke-miterlimit="10" stroke-opacity="0.5"/><path fill="#66c2a5" stroke="black" paint-order="fill stroke markers" d=" M 166.27272727272728 123.22727272727272 A 10 10 0 1 1 166.2727222727277 123.21727272893938" fill-opacity="0.5" stroke-linejoin="bevel" stroke-miterlimit="10" stroke-opacity="0.5"/><path fill="#66c2a5" stroke="black" paint-order="fill stroke markers" d=" M 313.90909090909093 72.77272727272725 A 10 10 0 1 1 313.90908590909135 72.76272727439391" fill-opacity="0.5" stroke-linejoin="bevel" stroke-miterlimit="10" stroke-opacity="0.5"/><path fill="#66c2a5" stroke="black" paint-order="fill stroke markers" d=" M 461.5454545454546 19.590909090909093 A 10 10 0 1 1 461.545449545455 19.580909092575755" fill-opacity="0.5" stroke-linejoin="bevel" stroke-miterlimit="10" stroke-opacity="0.5"/></g></g></g><g clip-path="url(#ZvRZfJNnaVuB)"><g><g><path fill="none" stroke="none"/><path fill="none" stroke="#66c2a5" paint-order="fill stroke markers" d=" M 82.45454545454547 213.22727272727272 L 156.27272727272728 123.22727272727272 L 303.90909090909093 72.77272727272725 L 451.5454545454546 19.590909090909093" stroke-linejoin="bevel" stroke-miterlimit="10" stroke-width="2"/></g></g></g><g clip-path="url(#GDkRMiyikZdE)"><g><g><path fill="none" stroke="none"/><path fill="#abdda4" stroke="black" paint-order="fill stroke markers" d=" M 92.45454545454547 191.4090909090909 A 10 10 0 1 1 92.45454045454588 191.39909091075756" fill-opacity="0.5" stroke-linejoin="bevel" stroke-miterlimit="10" stroke-opacity="0.5"/><path fill="#abdda4" stroke="black" paint-order="fill stroke markers" d=" M 166.27272727272728 131.4090909090909 A 10 10 0 1 1 166.2727222727277 131.39909091075756" fill-opacity="0.5" stroke-linejoin="bevel" stroke-miterlimit="10" stroke-opacity="0.5"/><path fill="#abdda4" stroke="black" paint-order="fill stroke markers" d=" M 313.90909090909093 63.22727272727272 A 10 10 0 1 1 313.90908590909135 63.21727272893938" fill-opacity="0.5" stroke-linejoin="bevel" stroke-miterlimit="10" stroke-opacity="0.5"/><path fill="#abdda4" stroke="black" paint-order="fill stroke markers" d=" M 461.5454545454546 15.499999999999972 A 10 10 0 1 1 461.545449545455 15.490000001666631" fill-opacity="0.5" stroke-linejoin="bevel" stroke-miterlimit="10" stroke-opacity="0.5"/></g></g></g><g clip-path="url(#OJQPFCfUnhKl)"><g><g><path fill="none" stroke="none"/><path fill="none" stroke="#abdda4" paint-order="fill stroke markers" d=" M 82.45454545454547 191.4090909090909 L 156.27272727272728 131.4090909090909 L 303.90909090909093 63.22727272727272 L 451.5454545454546 15.499999999999972" stroke-linejoin="bevel" stroke-miterlimit="10" stroke-width="2"/></g></g></g><g clip-path="url(#isGQsBEsxHCn)"><g><g/><g><path fill="#ffffff" stroke="#e5e5e5" paint-order="fill stroke markers" d=" M 351.671875 117 L 460 117 L 460 226 L 351.671875 226 L 351.671875 117 Z" fill-opacity="0.95" stroke-linejoin="bevel" stroke-miterlimit="10" stroke-opacity="0.5"/><text fill="#444444" stroke="none" font-family="helvetica" font-size="14pt" font-style="normal" font-weight="normal" text-decoration="normal" x="386.671875" y="137" text-anchor="start" dominant-baseline="central">500 uM</text><path fill="#5e4fa2" stroke="black" paint-order="fill stroke markers" d=" M 375.671875 137 A 4 4 0 1 1 375.6718730000002 136.99600000066667" fill-opacity="0.5" stroke-linejoin="bevel" stroke-miterlimit="10" stroke-opacity="0.5"/><text fill="#444444" stroke="none" font-family="helvetica" font-size="14pt" font-style="normal" font-weight="normal" text-decoration="normal" x="386.671875" y="160" text-anchor="start" dominant-baseline="central">100 uM</text><path fill="#3288bd" stroke="black" paint-order="fill stroke markers" d=" M 375.671875 160 A 4 4 0 1 1 375.6718730000002 159.99600000066667" fill-opacity="0.5" stroke-linejoin="bevel" stroke-miterlimit="10" stroke-opacity="0.5"/><text fill="#444444" stroke="none" font-family="helvetica" font-size="14pt" font-style="normal" font-weight="normal" text-decoration="normal" x="386.671875" y="183" text-anchor="start" dominant-baseline="central">20 uM</text><path fill="#66c2a5" stroke="black" paint-order="fill stroke markers" d=" M 375.671875 183 A 4 4 0 1 1 375.6718730000002 182.99600000066667" fill-opacity="0.5" stroke-linejoin="bevel" stroke-miterlimit="10" stroke-opacity="0.5"/><text fill="#444444" stroke="none" font-family="helvetica" font-size="14pt" font-style="normal" font-weight="normal" text-decoration="normal" x="386.671875" y="206" text-anchor="start" dominant-baseline="central">10 uM</text><path fill="#abdda4" stroke="black" paint-order="fill stroke markers" d=" M 375.671875 206 A 4 4 0 1 1 375.6718730000002 205.99600000066667" fill-opacity="0.5" stroke-linejoin="bevel" stroke-miterlimit="10" stroke-opacity="0.5"/></g></g></g><g/><g/><g><g fill="#444444"><path fill="none" stroke="black" paint-order="fill stroke markers" d=" M 64 236 L 470 236" stroke-linejoin="bevel" stroke-miterlimit="10"/><path fill="none" stroke="black" paint-order="fill stroke markers" d=" M 82 242 L 82 234" stroke-linejoin="bevel" stroke-miterlimit="10"/><path fill="none" stroke="black" paint-order="fill stroke markers" d=" M 156 242 L 156 234" stroke-linejoin="bevel" stroke-miterlimit="10"/><path fill="none" stroke="black" paint-order="fill stroke markers" d=" M 230 242 L 230 234" stroke-linejoin="bevel" stroke-miterlimit="10"/><path fill="none" stroke="black" paint-order="fill stroke markers" d=" M 304 242 L 304 234" stroke-linejoin="bevel" stroke-miterlimit="10"/><path fill="none" stroke="black" paint-order="fill stroke markers" d=" M 378 242 L 378 234" stroke-linejoin="bevel" stroke-miterlimit="10"/><path fill="none" stroke="black" paint-order="fill stroke markers" d=" M 452 242 L 452 234" stroke-linejoin="bevel" stroke-miterlimit="10"/><path fill="none" stroke="black" paint-order="fill stroke markers" d=" M 68 240 L 68 236" stroke-linejoin="bevel" stroke-miterlimit="10"/><path fill="none" stroke="black" paint-order="fill stroke markers" d=" M 82 240 L 82 236" stroke-linejoin="bevel" stroke-miterlimit="10"/><path fill="none" stroke="black" paint-order="fill stroke markers" d=" M 97 240 L 97 236" stroke-linejoin="bevel" stroke-miterlimit="10"/><path fill="none" stroke="black" paint-order="fill stroke markers" d=" M 112 240 L 112 236" stroke-linejoin="bevel" stroke-miterlimit="10"/><path fill="none" stroke="black" paint-order="fill stroke markers" d=" M 127 240 L 127 236" stroke-linejoin="bevel" stroke-miterlimit="10"/><path fill="none" stroke="black" paint-order="fill stroke markers" d=" M 142 240 L 142 236" stroke-linejoin="bevel" stroke-miterlimit="10"/><path fill="none" stroke="black" paint-order="fill stroke markers" d=" M 156 240 L 156 236" stroke-linejoin="bevel" stroke-miterlimit="10"/><path fill="none" stroke="black" paint-order="fill stroke markers" d=" M 171 240 L 171 236" stroke-linejoin="bevel" stroke-miterlimit="10"/><path fill="none" stroke="black" paint-order="fill stroke markers" d=" M 186 240 L 186 236" stroke-linejoin="bevel" stroke-miterlimit="10"/><path fill="none" stroke="black" paint-order="fill stroke markers" d=" M 201 240 L 201 236" stroke-linejoin="bevel" stroke-miterlimit="10"/><path fill="none" stroke="black" paint-order="fill stroke markers" d=" M 215 240 L 215 236" stroke-linejoin="bevel" stroke-miterlimit="10"/><path fill="none" stroke="black" paint-order="fill stroke markers" d=" M 230 240 L 230 236" stroke-linejoin="bevel" stroke-miterlimit="10"/><path fill="none" stroke="black" paint-order="fill stroke markers" d=" M 245 240 L 245 236" stroke-linejoin="bevel" stroke-miterlimit="10"/><path fill="none" stroke="black" paint-order="fill stroke markers" d=" M 260 240 L 260 236" stroke-linejoin="bevel" stroke-miterlimit="10"/><path fill="none" stroke="black" paint-order="fill stroke markers" d=" M 274 240 L 274 236" stroke-linejoin="bevel" stroke-miterlimit="10"/><path fill="none" stroke="black" paint-order="fill stroke markers" d=" M 289 240 L 289 236" stroke-linejoin="bevel" stroke-miterlimit="10"/><path fill="none" stroke="black" paint-order="fill stroke markers" d=" M 304 240 L 304 236" stroke-linejoin="bevel" stroke-miterlimit="10"/><path fill="none" stroke="black" paint-order="fill stroke markers" d=" M 319 240 L 319 236" stroke-linejoin="bevel" stroke-miterlimit="10"/><path fill="none" stroke="black" paint-order="fill stroke markers" d=" M 333 240 L 333 236" stroke-linejoin="bevel" stroke-miterlimit="10"/><path fill="none" stroke="black" paint-order="fill stroke markers" d=" M 348 240 L 348 236" stroke-linejoin="bevel" stroke-miterlimit="10"/><path fill="none" stroke="black" paint-order="fill stroke markers" d=" M 363 240 L 363 236" stroke-linejoin="bevel" stroke-miterlimit="10"/><path fill="none" stroke="black" paint-order="fill stroke markers" d=" M 378 240 L 378 236" stroke-linejoin="bevel" stroke-miterlimit="10"/><path fill="none" stroke="black" paint-order="fill stroke markers" d=" M 392 240 L 392 236" stroke-linejoin="bevel" stroke-miterlimit="10"/><path fill="none" stroke="black" paint-order="fill stroke markers" d=" M 407 240 L 407 236" stroke-linejoin="bevel" stroke-miterlimit="10"/><path fill="none" stroke="black" paint-order="fill stroke markers" d=" M 422 240 L 422 236" stroke-linejoin="bevel" stroke-miterlimit="10"/><path fill="none" stroke="black" paint-order="fill stroke markers" d=" M 437 240 L 437 236" stroke-linejoin="bevel" stroke-miterlimit="10"/><path fill="none" stroke="black" paint-order="fill stroke markers" d=" M 452 240 L 452 236" stroke-linejoin="bevel" stroke-miterlimit="10"/><path fill="" stroke="black" paint-order="fill stroke markers" d=" M 466 240 L 466 236" stroke-linejoin="bevel" stroke-miterlimit="10"/><g transform="translate(82,247) rotate(0,0,0)"><text fill="" stroke="none" font-family="helvetica" font-size="14pt" font-style="normal" font-weight="normal" text-decoration="normal" x="0" y="0" text-anchor="middle" dominant-baseline="hanging">5</text><g transform="rotate(0,0,0) translate(-82,-247) translate(156,247) rotate(0,0,0)"><text fill="" stroke="none" font-family="helvetica" font-size="14pt" font-style="normal" font-weight="normal" text-decoration="normal" x="0" y="0" text-anchor="middle" dominant-baseline="hanging">10</text><g transform="rotate(0,0,0) translate(-156,-247) translate(230,247) rotate(0,0,0)"><text fill="" stroke="none" font-family="helvetica" font-size="14pt" font-style="normal" font-weight="normal" text-decoration="normal" x="0" y="0" text-anchor="middle" dominant-baseline="hanging">15</text><g transform="rotate(0,0,0) translate(-230,-247) translate(304,247) rotate(0,0,0)"><text fill="" stroke="none" font-family="helvetica" font-size="14pt" font-style="normal" font-weight="normal" text-decoration="normal" x="0" y="0" text-anchor="middle" dominant-baseline="hanging">20</text><g transform="rotate(0,0,0) translate(-304,-247) translate(378,247) rotate(0,0,0)"><text fill="" stroke="none" font-family="helvetica" font-size="14pt" font-style="normal" font-weight="normal" text-decoration="normal" x="0" y="0" text-anchor="middle" dominant-baseline="hanging">25</text><g transform="rotate(0,0,0) translate(-378,-247) translate(452,247) rotate(0,0,0)"><text fill="" stroke="none" font-family="helvetica" font-size="14pt" font-style="normal" font-weight="normal" text-decoration="normal" x="0" y="0" text-anchor="middle" dominant-baseline="hanging">30</text><g transform="rotate(0,0,0) translate(-452,-247) translate(267,275) rotate(0,0,0)"><text fill="" stroke="none" font-family="helvetica" font-size="16pt" font-style="italic" font-weight="normal" text-decoration="normal" x="0" y="0" text-anchor="middle" dominant-baseline="hanging">Time [min]</text><g transform="rotate(0,0,0) translate(-267,-275)"/></g></g></g></g></g></g></g></g></g><g><g fill="#444444"><path fill="none" stroke="black" paint-order="fill stroke markers" d=" M 64 236 L 64 5" stroke-linejoin="bevel" stroke-miterlimit="10"/><path fill="none" stroke="black" paint-order="fill stroke markers" d=" M 58 230 L 66 230" stroke-linejoin="bevel" stroke-miterlimit="10"/><path fill="none" stroke="black" paint-order="fill stroke markers" d=" M 58 202 L 66 202" stroke-linejoin="bevel" stroke-miterlimit="10"/><path fill="none" stroke="black" paint-order="fill stroke markers" d=" M 58 175 L 66 175" stroke-linejoin="bevel" stroke-miterlimit="10"/><path fill="none" stroke="black" paint-order="fill stroke markers" d=" M 58 148 L 66 148" stroke-linejoin="bevel" stroke-miterlimit="10"/><path fill="none" stroke="black" paint-order="fill stroke markers" d=" M 58 121 L 66 121" stroke-linejoin="bevel" stroke-miterlimit="10"/><path fill="none" stroke="black" paint-order="fill stroke markers" d=" M 58 93 L 66 93" stroke-linejoin="bevel" stroke-miterlimit="10"/><path fill="none" stroke="black" paint-order="fill stroke markers" d=" M 58 66 L 66 66" stroke-linejoin="bevel" stroke-miterlimit="10"/><path fill="none" stroke="black" paint-order="fill stroke markers" d=" M 58 39 L 66 39" stroke-linejoin="bevel" stroke-miterlimit="10"/><path fill="none" stroke="black" paint-order="fill stroke markers" d=" M 58 11 L 66 11" stroke-linejoin="bevel" stroke-miterlimit="10"/><path fill="none" stroke="black" paint-order="fill stroke markers" d=" M 60 235 L 64 235" stroke-linejoin="bevel" stroke-miterlimit="10"/><path fill="none" stroke="black" paint-order="fill stroke markers" d=" M 60 230 L 64 230" stroke-linejoin="bevel" stroke-miterlimit="10"/><path fill="none" stroke="black" paint-order="fill stroke markers" d=" M 60 224 L 64 224" stroke-linejoin="bevel" stroke-miterlimit="10"/><path fill="none" stroke="black" paint-order="fill stroke markers" d=" M 60 219 L 64 219" stroke-linejoin="bevel" stroke-miterlimit="10"/><path fill="none" stroke="black" paint-order="fill stroke markers" d=" M 60 213 L 64 213" stroke-linejoin="bevel" stroke-miterlimit="10"/><path fill="none" stroke="black" paint-order="fill stroke markers" d=" M 60 208 L 64 208" stroke-linejoin="bevel" stroke-miterlimit="10"/><path fill="none" stroke="black" paint-order="fill stroke markers" d=" M 60 202 L 64 202" stroke-linejoin="bevel" stroke-miterlimit="10"/><path fill="none" stroke="black" paint-order="fill stroke markers" d=" M 60 197 L 64 197" stroke-linejoin="bevel" stroke-miterlimit="10"/><path fill="none" stroke="black" paint-order="fill stroke markers" d=" M 60 191 L 64 191" stroke-linejoin="bevel" stroke-miterlimit="10"/><path fill="none" stroke="black" paint-order="fill stroke markers" d=" M 60 186 L 64 186" stroke-linejoin="bevel" stroke-miterlimit="10"/><path fill="none" stroke="black" paint-order="fill stroke markers" d=" M 60 181 L 64 181" stroke-linejoin="bevel" stroke-miterlimit="10"/><path fill="none" stroke="black" paint-order="fill stroke markers" d=" M 60 175 L 64 175" stroke-linejoin="bevel" stroke-miterlimit="10"/><path fill="none" stroke="black" paint-order="fill stroke markers" d=" M 60 170 L 64 170" stroke-linejoin="bevel" stroke-miterlimit="10"/><path fill="none" stroke="black" paint-order="fill stroke markers" d=" M 60 164 L 64 164" stroke-linejoin="bevel" stroke-miterlimit="10"/><path fill="none" stroke="black" paint-order="fill stroke markers" d=" M 60 159 L 64 159" stroke-linejoin="bevel" stroke-miterlimit="10"/><path fill="none" stroke="black" paint-order="fill stroke markers" d=" M 60 153 L 64 153" stroke-linejoin="bevel" stroke-miterlimit="10"/><path fill="none" stroke="black" paint-order="fill stroke markers" d=" M 60 148 L 64 148" stroke-linejoin="bevel" stroke-miterlimit="10"/><path fill="none" stroke="black" paint-order="fill stroke markers" d=" M 60 142 L 64 142" stroke-linejoin="bevel" stroke-miterlimit="10"/><path fill="none" stroke="black" paint-order="fill stroke markers" d=" M 60 137 L 64 137" stroke-linejoin="bevel" stroke-miterlimit="10"/><path fill="none" stroke="black" paint-order="fill stroke markers" d=" M 60 131 L 64 131" stroke-linejoin="bevel" stroke-miterlimit="10"/><path fill="none" stroke="black" paint-order="fill stroke markers" d=" M 60 126 L 64 126" stroke-linejoin="bevel" stroke-miterlimit="10"/><path fill="none" stroke="black" paint-order="fill stroke markers" d=" M 60 121 L 64 121" stroke-linejoin="bevel" stroke-miterlimit="10"/><path fill="none" stroke="black" paint-order="fill stroke markers" d=" M 60 115 L 64 115" stroke-linejoin="bevel" stroke-miterlimit="10"/><path fill="none" stroke="black" paint-order="fill stroke markers" d=" M 60 110 L 64 110" stroke-linejoin="bevel" stroke-miterlimit="10"/><path fill="none" stroke="black" paint-order="fill stroke markers" d=" M 60 104 L 64 104" stroke-linejoin="bevel" stroke-miterlimit="10"/><path fill="none" stroke="black" paint-order="fill stroke markers" d=" M 60 99 L 64 99" stroke-linejoin="bevel" stroke-miterlimit="10"/><path fill="none" stroke="black" paint-order="fill stroke markers" d=" M 60 93 L 64 93" stroke-linejoin="bevel" stroke-miterlimit="10"/><path fill="none" stroke="black" paint-order="fill stroke markers" d=" M 60 88 L 64 88" stroke-linejoin="bevel" stroke-miterlimit="10"/><path fill="none" stroke="black" paint-order="fill stroke markers" d=" M 60 82 L 64 82" stroke-linejoin="bevel" stroke-miterlimit="10"/><path fill="none" stroke="black" paint-order="fill stroke markers" d=" M 60 77 L 64 77" stroke-linejoin="bevel" stroke-miterlimit="10"/><path fill="none" stroke="black" paint-order="fill stroke markers" d=" M 60 71 L 64 71" stroke-linejoin="bevel" stroke-miterlimit="10"/><path fill="none" stroke="black" paint-order="fill stroke markers" d=" M 60 66 L 64 66" stroke-linejoin="bevel" stroke-miterlimit="10"/><path fill="none" stroke="black" paint-order="fill stroke markers" d=" M 60 60 L 64 60" stroke-linejoin="bevel" stroke-miterlimit="10"/><path fill="none" stroke="black" paint-order="fill stroke markers" d=" M 60 55 L 64 55" stroke-linejoin="bevel" stroke-miterlimit="10"/><path fill="none" stroke="black" paint-order="fill stroke markers" d=" M 60 50 L 64 50" stroke-linejoin="bevel" stroke-miterlimit="10"/><path fill="none" stroke="black" paint-order="fill stroke markers" d=" M 60 44 L 64 44" stroke-linejoin="bevel" stroke-miterlimit="10"/><path fill="none" stroke="black" paint-order="fill stroke markers" d=" M 60 39 L 64 39" stroke-linejoin="bevel" stroke-miterlimit="10"/><path fill="none" stroke="black" paint-order="fill stroke markers" d=" M 60 33 L 64 33" stroke-linejoin="bevel" stroke-miterlimit="10"/><path fill="none" stroke="black" paint-order="fill stroke markers" d=" M 60 28 L 64 28" stroke-linejoin="bevel" stroke-miterlimit="10"/><path fill="none" stroke="black" paint-order="fill stroke markers" d=" M 60 22 L 64 22" stroke-linejoin="bevel" stroke-miterlimit="10"/><path fill="none" stroke="black" paint-order="fill stroke markers" d=" M 60 17 L 64 17" stroke-linejoin="bevel" stroke-miterlimit="10"/><path fill="none" stroke="black" paint-order="fill stroke markers" d=" M 60 11 L 64 11" stroke-linejoin="bevel" stroke-miterlimit="10"/><path fill="" stroke="black" paint-order="fill stroke markers" d=" M 60 6 L 64 6" stroke-linejoin="bevel" stroke-miterlimit="10"/><g transform="translate(53,230) rotate(0,0,0)"><text fill="" stroke="none" font-family="helvetica" font-size="14pt" font-style="normal" font-weight="normal" text-decoration="normal" x="0" y="0" text-anchor="end" dominant-baseline="central">2</text><g transform="rotate(0,0,0) translate(-53,-230) translate(53,202) rotate(0,0,0)"><text fill="" stroke="none" font-family="helvetica" font-size="14pt" font-style="normal" font-weight="normal" text-decoration="normal" x="0" y="0" text-anchor="end" dominant-baseline="central">4</text><g transform="rotate(0,0,0) translate(-53,-202) translate(53,175) rotate(0,0,0)"><text fill="" stroke="none" font-family="helvetica" font-size="14pt" font-style="normal" font-weight="normal" text-decoration="normal" x="0" y="0" text-anchor="end" dominant-baseline="central">6</text><g transform="rotate(0,0,0) translate(-53,-175) translate(53,148) rotate(0,0,0)"><text fill="" stroke="none" font-family="helvetica" font-size="14pt" font-style="normal" font-weight="normal" text-decoration="normal" x="0" y="0" text-anchor="end" dominant-baseline="central">8</text><g transform="rotate(0,0,0) translate(-53,-148) translate(53,121) rotate(0,0,0)"><text fill="" stroke="none" font-family="helvetica" font-size="14pt" font-style="normal" font-weight="normal" text-decoration="normal" x="0" y="0" text-anchor="end" dominant-baseline="central">10</text><g transform="rotate(0,0,0) translate(-53,-121) translate(53,93) rotate(0,0,0)"><text fill="" stroke="none" font-family="helvetica" font-size="14pt" font-style="normal" font-weight="normal" text-decoration="normal" x="0" y="0" text-anchor="end" dominant-baseline="central">12</text><g transform="rotate(0,0,0) translate(-53,-93) translate(53,66) rotate(0,0,0)"><text fill="" stroke="none" font-family="helvetica" font-size="14pt" font-style="normal" font-weight="normal" text-decoration="normal" x="0" y="0" text-anchor="end" dominant-baseline="central">14</text><g transform="rotate(0,0,0) translate(-53,-66) translate(53,39) rotate(0,0,0)"><text fill="" stroke="none" font-family="helvetica" font-size="14pt" font-style="normal" font-weight="normal" text-decoration="normal" x="0" y="0" text-anchor="end" dominant-baseline="central">16</text><g transform="rotate(0,0,0) translate(-53,-39) translate(53,11) rotate(0,0,0)"><text fill="" stroke="none" font-family="helvetica" font-size="14pt" font-style="normal" font-weight="normal" text-decoration="normal" x="0" y="0" text-anchor="end" dominant-baseline="central">18</text><g transform="rotate(0,0,0) translate(-53,-11) translate(25,121) rotate(-90,0,0)"><text fill="" stroke="none" font-family="helvetica" font-size="16pt" font-style="italic" font-weight="normal" text-decoration="normal" x="0" y="0" text-anchor="middle" dominant-baseline="alphabetic">Mean Intensity</text><g transform="rotate(90,0,0) translate(-25,-121)"/></g></g></g></g></g></g></g></g></g></g></g></g><g clip-path="url(#ZoGzaeALJeUk)"><g/></g></g></g></svg>