<svg version="1.1" xmlns="http://www.w3.org/2000/svg" xmlns:xlink="http://www.w3.org/1999/xlink" width="500" height="300" style="width: 500px; height: 300px;"><defs><clipPath id="pLAkETQQVdnm"><path fill="none" stroke="none" d=" M 62 5 L 470 5 L 470 238 L 62 238 L 62 5 Z"/></clipPath><clipPath id="ymNhSliTtUiN"><path fill="none" stroke="none" d=" M 62 5 L 470 5 L 470 238 L 62 238 L 62 5 Z"/></clipPath><clipPath id="FhWqmPqhQBie"><path fill="none" stroke="none" d=" M 62 5 L 470 5 L 470 238 L 62 238 L 62 5 Z"/></clipPath><clipPath id="ePvDdbLMlLcP"><path fill="none" stroke="none" d=" M 62 5 L 470 5 L 470 238 L 62 238 L 62 5 Z"/></clipPath><clipPath id="qXSnqlQNVAaZ"><path fill="none" stroke="none" d=" M 62 5 L 470 5 L 470 238 L 62 238 L 62 5 Z"/></clipPath><clipPath id="twgWtteXKFTh"><path fill="none" stroke="none" d=" M 62 5 L 470 5 L 470 238 L 62 238 L 62 5 Z"/></clipPath><clipPath id="KxSrdBDslJyo"><path fill="none" stroke="none" d=" M 62 5 L 470 5 L 470 238 L 62 238 L 62 5 Z"/></clipPath><clipPath id="bDChwmsyoNiO"><path fill="none" stroke="none" d=" M 62 5 L 470 5 L 470 238 L 62 238 L 62 5 Z"/></clipPath></defs><g><g transform="scale(1,1) translate(0.5,0.5)"><rect fill="#FFFFFF" stroke="none" x="0" y="0" width="500" height="300"/><rect fill="#ffffff" stroke="none" x="0" y="0" width="500" height="300"/><rect fill="#FFFFFF" stroke="none" x="62" y="5" width="408" height="233"/><rect fill="#ffffff" stroke="none" x="62" y="5" width="408" height="233"/><g><rect fill="none" stroke="#e5e5e5" x="62" y="5" width="408" height="233" stroke-linejoin="bevel" stroke-miterlimit="10"/></g><g clip-path="url(#pLAkETQQVdnm)"><g><g/></g></g><g clip-path="url(#ymNhSliTtUiN)"><g><g><path fill="none" stroke="lightgray" paint-order="fill stroke markers" d=" M 62 231 L 470 231" stroke-linejoin="bevel" stroke-miterlimit="10" stroke-width="2"/><path fill="none" stroke="lightgray" paint-order="fill stroke markers" d=" M 62 204 L 470 204" stroke-linejoin="bevel" stroke-miterlimit="10" stroke-width="2"/><path fill="none" stroke="lightgray" paint-order="fill stroke markers" d=" M 62 176 L 470 176" stroke-linejoin="bevel" stroke-miterlimit="10" stroke-width="2"/><path fill="none" stroke="lightgray" paint-order="fill stroke markers" d=" M 62 149 L 470 149" stroke-linejoin="bevel" stroke-miterlimit="10" stroke-width="2"/><path fill="none" stroke="lightgray" paint-order="fill stroke markers" d=" M 62 122 L 470 122" stroke-linejoin="bevel" stroke-miterlimit="10" stroke-width="2"/><path fill="none" stroke="lightgray" paint-order="fill stroke markers" d=" M 62 94 L 470 94" stroke-linejoin="bevel" stroke-miterlimit="10" stroke-width="2"/><path fill="none" stroke="lightgray" paint-order="fill stroke markers" d=" M 62 67 L 470 67" stroke-linejoin="bevel" stroke-miterlimit="10" stroke-width="2"/><path fill="none" stroke="lightgray" paint-order="fill stroke markers" d=" M 62 39 L 470 39" stroke-linejoin="bevel" stroke-miterlimit="10" stroke-width="2"/><path fill="none" stroke="lightgray" paint-order="fill stroke markers" d=" M 62 12 L 470 12" stroke-linejoin="bevel" stroke-miterlimit="10" stroke-width="2"/></g></g></g><g clip-path="url(#FhWqmPqhQBie)"><g><g><path fill="none" stroke="none"/><path fill="none" stroke="black" paint-order="fill stroke markers" d=" M 113 15.65963659961065 L 113 51.74157866792521" stroke-linejoin="bevel" stroke-miterlimit="10" stroke-width="2"/><path fill="none" stroke="black" paint-order="fill stroke markers" d=" M 215 25.281487817827838 L 215 63.42525514718892" stroke-linejoin="bevel" stroke-miterlimit="10" stroke-width="2"/><path fill="none" stroke="black" paint-order="fill stroke markers" d=" M 317 19.78328712170375 L 317 59.988879712111384" stroke-linejoin="bevel" stroke-miterlimit="10" stroke-width="2"/><path fill="none" stroke="black" paint-order="fill stroke markers" d=" M 419 26.65603799185891 L 419 72.0161937348829" stroke-linejoin="bevel" stroke-miterlimit="10" stroke-width="2"/></g></g></g><g clip-path="url(#ePvDdbLMlLcP)"><g><g><path fill="none" stroke="none"/><path fill="none" stroke="black" paint-order="fill stroke markers" d=" M 113 192.9766090496136 L 113 147.61645330658956" stroke-linejoin="bevel" stroke-miterlimit="10" stroke-width="2"/><path fill="none" stroke="black" paint-order="fill stroke markers" d=" M 215 184.7293080054274 L 215 138.33823963188013" stroke-linejoin="bevel" stroke-miterlimit="10" stroke-width="2"/><path fill="none" stroke="black" paint-order="fill stroke markers" d=" M 317 214.96941183411008 L 317 146.92917821957406" stroke-linejoin="bevel" stroke-miterlimit="10" stroke-width="2"/><path fill="none" stroke="black" paint-order="fill stroke markers" d=" M 419 227.34036340038935 L 419 156.20739189428352" stroke-linejoin="bevel" stroke-miterlimit="10" stroke-width="2"/></g></g></g><g clip-path="url(#qXSnqlQNVAaZ)"><g><g><path fill="none" stroke="none"/><rect fill="#5e4fa2" stroke="none" x="77.3" y="51.74157866792521" width="71.39999999999999" height="46.391068373547284"/><rect fill="#5e4fa2" stroke="none" x="179.3" y="63.42525514718892" width="71.39999999999998" height="36.08194206831456"/><rect fill="#5e4fa2" stroke="none" x="281.29999999999995" y="59.988879712111384" width="71.40000000000003" height="38.83104241637659"/><rect fill="#5e4fa2" stroke="none" x="383.3" y="72.0161937348829" width="71.39999999999998" height="37.80012978585333"/><path fill="none" stroke="black" paint-order="fill stroke markers" d=" M 77.3 51.74157866792521 L 148.7 51.74157866792521 L 148.7 98.1326470414725 L 77.3 98.1326470414725 L 77.3 51.74157866792521 Z" stroke-linejoin="bevel" stroke-miterlimit="10" stroke-width="2"/><path fill="none" stroke="black" paint-order="fill stroke markers" d=" M 179.3 63.42525514718892 L 250.7 63.42525514718892 L 250.7 99.50719721550348 L 179.3 99.50719721550348 L 179.3 63.42525514718892 Z" stroke-linejoin="bevel" stroke-miterlimit="10" stroke-width="2"/><path fill="none" stroke="black" paint-order="fill stroke markers" d=" M 281.29999999999995 59.988879712111384 L 352.7 59.988879712111384 L 352.7 98.81992212848797 L 281.29999999999995 98.81992212848797 L 281.29999999999995 59.988879712111384 Z" stroke-linejoin="bevel" stroke-miterlimit="10" stroke-width="2"/><path fill="none" stroke="black" paint-order="fill stroke markers" d=" M 383.3 72.0161937348829 L 454.7 72.0161937348829 L 454.7 109.81632352073623 L 383.3 109.81632352073623 L 383.3 72.0161937348829 Z" stroke-linejoin="bevel" stroke-miterlimit="10" stroke-width="2"/><path fill="none" stroke="black" paint-order="fill stroke markers" d="" stroke-linejoin="bevel" stroke-miterlimit="10" stroke-width="2"/></g></g></g><g clip-path="url(#twgWtteXKFTh)"><g><g><path fill="none" stroke="none"/><rect fill="#fdae61" stroke="none" x="77.3" y="98.1326470414725" width="71.39999999999999" height="49.483806265117124"/><rect fill="#fdae61" stroke="none" x="179.3" y="99.50719721550348" width="71.39999999999998" height="38.83104241637662"/><rect fill="#fdae61" stroke="none" x="281.29999999999995" y="98.81992212848797" width="71.40000000000003" height="48.10925609108608"/><rect fill="#fdae61" stroke="none" x="383.3" y="109.81632352073623" width="71.39999999999998" height="46.391068373547284"/><path fill="none" stroke="black" paint-order="fill stroke markers" d=" M 77.3 98.1326470414725 L 148.7 98.1326470414725 L 148.7 147.61645330658962 L 77.3 147.61645330658962 L 77.3 98.1326470414725 Z" stroke-linejoin="bevel" stroke-miterlimit="10" stroke-width="2"/><path fill="none" stroke="black" paint-order="fill stroke markers" d=" M 179.3 99.50719721550348 L 250.7 99.50719721550348 L 250.7 138.3382396318801 L 179.3 138.3382396318801 L 179.3 99.50719721550348 Z" stroke-linejoin="bevel" stroke-miterlimit="10" stroke-width="2"/><path fill="none" stroke="black" paint-order="fill stroke markers" d=" M 281.29999999999995 98.81992212848797 L 352.7 98.81992212848797 L 352.7 146.92917821957406 L 281.29999999999995 146.92917821957406 L 281.29999999999995 98.81992212848797 Z" stroke-linejoin="bevel" stroke-miterlimit="10" stroke-width="2"/><path fill="none" stroke="black" paint-order="fill stroke markers" d=" M 383.3 109.81632352073623 L 454.7 109.81632352073623 L 454.7 156.20739189428352 L 383.3 156.20739189428352 L 383.3 109.81632352073623 Z" stroke-linejoin="bevel" stroke-miterlimit="10" stroke-width="2"/><path fill="none" stroke="black" paint-order="fill stroke markers" d="" stroke-linejoin="bevel" stroke-miterlimit="10" stroke-width="2"/></g></g></g><g clip-path="url(#KxSrdBDslJyo)"><g><g><path fill="none" stroke="none"/><rect fill="#1f77b4" stroke="none" x="102.80000000000001" y="192.90788154091206" width="20.400000000000006" height="0.1374550174030844"/><rect fill="#1f77b4" stroke="none" x="204.79999999999998" y="184.66058049672586" width="20.400000000000006" height="0.1374550174030844"/><rect fill="#1f77b4" stroke="none" x="306.79999999999995" y="214.90068432540852" width="20.400000000000034" height="0.13745501740311283"/><rect fill="#1f77b4" stroke="none" x="408.8" y="227.2716358916878" width="20.399999999999977" height="0.13745501740311283"/><path fill="none" stroke="black" paint-order="fill stroke markers" d=" M 102.80000000000001 192.90788154091206 L 123.20000000000002 192.90788154091206 L 123.20000000000002 193.04533655831514 L 102.80000000000001 193.04533655831514 L 102.80000000000001 192.90788154091206 Z" stroke-linejoin="bevel" stroke-miterlimit="10"/><path fill="none" stroke="black" paint-order="fill stroke markers" d=" M 204.79999999999998 184.66058049672586 L 225.2 184.66058049672586 L 225.2 184.79803551412894 L 204.79999999999998 184.79803551412894 L 204.79999999999998 184.66058049672586 Z" stroke-linejoin="bevel" stroke-miterlimit="10"/><path fill="none" stroke="black" paint-order="fill stroke markers" d=" M 306.79999999999995 214.90068432540852 L 327.2 214.90068432540852 L 327.2 215.03813934281163 L 306.79999999999995 215.03813934281163 L 306.79999999999995 214.90068432540852 Z" stroke-linejoin="bevel" stroke-miterlimit="10"/><path fill="none" stroke="black" paint-order="fill stroke markers" d=" M 408.8 227.2716358916878 L 429.2 227.2716358916878 L 429.2 227.4090909090909 L 408.8 227.4090909090909 L 408.8 227.2716358916878 Z" stroke-linejoin="bevel" stroke-miterlimit="10"/><path fill="none" stroke="black" paint-order="fill stroke markers" d="" stroke-linejoin="bevel" stroke-miterlimit="10"/></g></g></g><g clip-path="url(#bDChwmsyoNiO)"><g><g><path fill="none" stroke="none"/><rect fill="#1f77b4" stroke="none" x="102.80000000000001" y="15.590909090909093" width="20.400000000000006" height="0.13745501740311283"/><rect fill="#1f77b4" stroke="none" x="204.79999999999998" y="25.21276030912631" width="20.400000000000006" height="0.13745501740314126"/><rect fill="#1f77b4" stroke="none" x="306.79999999999995" y="19.714559613002194" width="20.400000000000034" height="0.13745501740311283"/><rect fill="#1f77b4" stroke="none" x="408.8" y="26.587310483157353" width="20.399999999999977" height="0.13745501740311283"/><path fill="none" stroke="black" paint-order="fill stroke markers" d=" M 102.80000000000001 15.590909090909093 L 123.20000000000002 15.590909090909093 L 123.20000000000002 15.728364108312206 L 102.80000000000001 15.728364108312206 L 102.80000000000001 15.590909090909093 Z" stroke-linejoin="bevel" stroke-miterlimit="10"/><path fill="none" stroke="black" paint-order="fill stroke markers" d=" M 204.79999999999998 25.21276030912631 L 225.2 25.21276030912631 L 225.2 25.35021532652945 L 204.79999999999998 25.35021532652945 L 204.79999999999998 25.21276030912631 Z" stroke-linejoin="bevel" stroke-miterlimit="10"/><path fill="none" stroke="black" paint-order="fill stroke markers" d=" M 306.79999999999995 19.714559613002194 L 327.2 19.714559613002194 L 327.2 19.852014630405307 L 306.79999999999995 19.852014630405307 L 306.79999999999995 19.714559613002194 Z" stroke-linejoin="bevel" stroke-miterlimit="10"/><path fill="none" stroke="black" paint-order="fill stroke markers" d=" M 408.8 26.587310483157353 L 429.2 26.587310483157353 L 429.2 26.724765500560466 L 408.8 26.724765500560466 L 408.8 26.587310483157353 Z" stroke-linejoin="bevel" stroke-miterlimit="10"/><path fill="none" stroke="black" paint-order="fill stroke markers" d="" stroke-linejoin="bevel" stroke-miterlimit="10"/></g></g></g><g/><g/><g><g fill="#444444"><path fill="none" stroke="black" paint-order="fill stroke markers" d=" M 62 238 L 470 238" stroke-linejoin="bevel" stroke-miterlimit="10"/><path fill="none" stroke="black" paint-order="fill stroke markers" d=" M 113 244 L 113 236" stroke-linejoin="bevel" stroke-miterlimit="10"/><path fill="none" stroke="black" paint-order="fill stroke markers" d=" M 215 244 L 215 236" stroke-linejoin="bevel" stroke-miterlimit="10"/><path fill="none" stroke="black" paint-order="fill stroke markers" d=" M 317 244 L 317 236" stroke-linejoin="bevel" stroke-miterlimit="10"/><path fill="" stroke="black" paint-order="fill stroke markers" d=" M 419 244 L 419 236" stroke-linejoin="bevel" stroke-miterlimit="10"/><g transform="translate(113,249) rotate(0,0,0)"><text fill="" stroke="none" font-family="helvetica" font-size="14pt" font-style="normal" font-weight="normal" text-decoration="normal" x="0" y="0" text-anchor="middle" dominant-baseline="hanging">10 um</text><g transform="rotate(0,0,0) translate(-113,-249) translate(215,249) rotate(0,0,0)"><text fill="" stroke="none" font-family="helvetica" font-size="14pt" font-style="normal" font-weight="normal" text-decoration="normal" x="0" y="0" text-anchor="middle" dominant-baseline="hanging">100 um</text><g transform="rotate(0,0,0) translate(-215,-249) translate(317,249) rotate(0,0,0)"><text fill="" stroke="none" font-family="helvetica" font-size="14pt" font-style="normal" font-weight="normal" text-decoration="normal" x="0" y="0" text-anchor="middle" dominant-baseline="hanging">20 um</text><g transform="rotate(0,0,0) translate(-317,-249) translate(419,249) rotate(0,0,0)"><text fill="" stroke="none" font-family="helvetica" font-size="14pt" font-style="normal" font-weight="normal" text-decoration="normal" x="0" y="0" text-anchor="middle" dominant-baseline="hanging">500 um</text><g transform="rotate(0,0,0) translate(-419,-249) translate(266,277) rotate(0,0,0)"><text fill="" stroke="none" font-family="helvetica" font-size="14pt" font-style="italic" font-weight="normal" text-decoration="normal" x="0" y="0" text-anchor="middle" dominant-baseline="hanging">Concentrations</text><g transform="rotate(0,0,0) translate(-266,-277)"/></g></g></g></g></g></g></g><g><g fill="#444444"><path fill="none" stroke="black" paint-order="fill stroke markers" d=" M 62 238 L 62 5" stroke-linejoin="bevel" stroke-miterlimit="10"/><path fill="none" stroke="black" paint-order="fill stroke markers" d=" M 56 231 L 64 231" stroke-linejoin="bevel" stroke-miterlimit="10"/><path fill="none" stroke="black" paint-order="fill stroke markers" d=" M 56 204 L 64 204" stroke-linejoin="bevel" stroke-miterlimit="10"/><path fill="none" stroke="black" paint-order="fill stroke markers" d=" M 56 176 L 64 176" stroke-linejoin="bevel" stroke-miterlimit="10"/><path fill="none" stroke="black" paint-order="fill stroke markers" d=" M 56 149 L 64 149" stroke-linejoin="bevel" stroke-miterlimit="10"/><path fill="none" stroke="black" paint-order="fill stroke markers" d=" M 56 122 L 64 122" stroke-linejoin="bevel" stroke-miterlimit="10"/><path fill="none" stroke="black" paint-order="fill stroke markers" d=" M 56 94 L 64 94" stroke-linejoin="bevel" stroke-miterlimit="10"/><path fill="none" stroke="black" paint-order="fill stroke markers" d=" M 56 67 L 64 67" stroke-linejoin="bevel" stroke-miterlimit="10"/><path fill="none" stroke="black" paint-order="fill stroke markers" d=" M 56 39 L 64 39" stroke-linejoin="bevel" stroke-miterlimit="10"/><path fill="none" stroke="black" paint-order="fill stroke markers" d=" M 56 12 L 64 12" stroke-linejoin="bevel" stroke-miterlimit="10"/><path fill="none" stroke="black" paint-order="fill stroke markers" d=" M 58 237 L 62 237" stroke-linejoin="bevel" stroke-miterlimit="10"/><path fill="none" stroke="black" paint-order="fill stroke markers" d=" M 58 231 L 62 231" stroke-linejoin="bevel" stroke-miterlimit="10"/><path fill="none" stroke="black" paint-order="fill stroke markers" d=" M 58 226 L 62 226" stroke-linejoin="bevel" stroke-miterlimit="10"/><path fill="none" stroke="black" paint-order="fill stroke markers" d=" M 58 220 L 62 220" stroke-linejoin="bevel" stroke-miterlimit="10"/><path fill="none" stroke="black" paint-order="fill stroke markers" d=" M 58 215 L 62 215" stroke-linejoin="bevel" stroke-miterlimit="10"/><path fill="none" stroke="black" paint-order="fill stroke markers" d=" M 58 209 L 62 209" stroke-linejoin="bevel" stroke-miterlimit="10"/><path fill="none" stroke="black" paint-order="fill stroke markers" d=" M 58 204 L 62 204" stroke-linejoin="bevel" stroke-miterlimit="10"/><path fill="none" stroke="black" paint-order="fill stroke markers" d=" M 58 198 L 62 198" stroke-linejoin="bevel" stroke-miterlimit="10"/><path fill="none" stroke="black" paint-order="fill stroke markers" d=" M 58 193 L 62 193" stroke-linejoin="bevel" stroke-miterlimit="10"/><path fill="none" stroke="black" paint-order="fill stroke markers" d=" M 58 187 L 62 187" stroke-linejoin="bevel" stroke-miterlimit="10"/><path fill="none" stroke="black" paint-order="fill stroke markers" d=" M 58 182 L 62 182" stroke-linejoin="bevel" stroke-miterlimit="10"/><path fill="none" stroke="black" paint-order="fill stroke markers" d=" M 58 176 L 62 176" stroke-linejoin="bevel" stroke-miterlimit="10"/><path fill="none" stroke="black" paint-order="fill stroke markers" d=" M 58 171 L 62 171" stroke-linejoin="bevel" stroke-miterlimit="10"/><path fill="none" stroke="black" paint-order="fill stroke markers" d=" M 58 165 L 62 165" stroke-linejoin="bevel" stroke-miterlimit="10"/><path fill="none" stroke="black" paint-order="fill stroke markers" d=" M 58 160 L 62 160" stroke-linejoin="bevel" stroke-miterlimit="10"/><path fill="none" stroke="black" paint-order="fill stroke markers" d=" M 58 154 L 62 154" stroke-linejoin="bevel" stroke-miterlimit="10"/><path fill="none" stroke="black" paint-order="fill stroke markers" d=" M 58 149 L 62 149" stroke-linejoin="bevel" stroke-miterlimit="10"/><path fill="none" stroke="black" paint-order="fill stroke markers" d=" M 58 143 L 62 143" stroke-linejoin="bevel" stroke-miterlimit="10"/><path fill="none" stroke="black" paint-order="fill stroke markers" d=" M 58 138 L 62 138" stroke-linejoin="bevel" stroke-miterlimit="10"/><path fill="none" stroke="black" paint-order="fill stroke markers" d=" M 58 132 L 62 132" stroke-linejoin="bevel" stroke-miterlimit="10"/><path fill="none" stroke="black" paint-order="fill stroke markers" d=" M 58 127 L 62 127" stroke-linejoin="bevel" stroke-miterlimit="10"/><path fill="none" stroke="black" paint-order="fill stroke markers" d=" M 58 122 L 62 122" stroke-linejoin="bevel" stroke-miterlimit="10"/><path fill="none" stroke="black" paint-order="fill stroke markers" d=" M 58 116 L 62 116" stroke-linejoin="bevel" stroke-miterlimit="10"/><path fill="none" stroke="black" paint-order="fill stroke markers" d=" M 58 111 L 62 111" stroke-linejoin="bevel" stroke-miterlimit="10"/><path fill="none" stroke="black" paint-order="fill stroke markers" d=" M 58 105 L 62 105" stroke-linejoin="bevel" stroke-miterlimit="10"/><path fill="none" stroke="black" paint-order="fill stroke markers" d=" M 58 100 L 62 100" stroke-linejoin="bevel" stroke-miterlimit="10"/><path fill="none" stroke="black" paint-order="fill stroke markers" d=" M 58 94 L 62 94" stroke-linejoin="bevel" stroke-miterlimit="10"/><path fill="none" stroke="black" paint-order="fill stroke markers" d=" M 58 89 L 62 89" stroke-linejoin="bevel" stroke-miterlimit="10"/><path fill="none" stroke="black" paint-order="fill stroke markers" d=" M 58 83 L 62 83" stroke-linejoin="bevel" stroke-miterlimit="10"/><path fill="none" stroke="black" paint-order="fill stroke markers" d=" M 58 78 L 62 78" stroke-linejoin="bevel" stroke-miterlimit="10"/><path fill="none" stroke="black" paint-order="fill stroke markers" d=" M 58 72 L 62 72" stroke-linejoin="bevel" stroke-miterlimit="10"/><path fill="none" stroke="black" paint-order="fill stroke markers" d=" M 58 67 L 62 67" stroke-linejoin="bevel" stroke-miterlimit="10"/><path fill="none" stroke="black" paint-order="fill stroke markers" d=" M 58 61 L 62 61" stroke-linejoin="bevel" stroke-miterlimit="10"/><path fill="none" stroke="black" paint-order="fill stroke markers" d=" M 58 56 L 62 56" stroke-linejoin="bevel" stroke-miterlimit="10"/><path fill="none" stroke="black" paint-order="fill stroke markers" d=" M 58 50 L 62 50" stroke-linejoin="bevel" stroke-miterlimit="10"/><path fill="none" stroke="black" paint-order="fill stroke markers" d=" M 58 45 L 62 45" stroke-linejoin="bevel" stroke-miterlimit="10"/><path fill="none" stroke="black" paint-order="fill stroke markers" d=" M 58 39 L 62 39" stroke-linejoin="bevel" stroke-miterlimit="10"/><path fill="none" stroke="black" paint-order="fill stroke markers" d=" M 58 34 L 62 34" stroke-linejoin="bevel" stroke-miterlimit="10"/><path fill="none" stroke="black" paint-order="fill stroke markers" d=" M 58 28 L 62 28" stroke-linejoin="bevel" stroke-miterlimit="10"/><path fill="none" stroke="black" paint-order="fill stroke markers" d=" M 58 23 L 62 23" stroke-linejoin="bevel" stroke-miterlimit="10"/><path fill="none" stroke="black" paint-order="fill stroke markers" d=" M 58 17 L 62 17" stroke-linejoin="bevel" stroke-miterlimit="10"/><path fill="none" stroke="black" paint-order="fill stroke markers" d=" M 58 12 L 62 12" stroke-linejoin="bevel" stroke-miterlimit="10"/><path fill="" stroke="black" paint-order="fill stroke markers" d=" M 58 6 L 62 6" stroke-linejoin="bevel" stroke-miterlimit="10"/><g transform="translate(51,231) rotate(0,0,0)"><text fill="" stroke="none" font-family="helvetica" font-size="14pt" font-style="normal" font-weight="normal" text-decoration="normal" x="0" y="0" text-anchor="end" dominant-baseline="central">2</text><g transform="rotate(0,0,0) translate(-51,-231) translate(51,204) rotate(0,0,0)"><text fill="" stroke="none" font-family="helvetica" font-size="14pt" font-style="normal" font-weight="normal" text-decoration="normal" x="0" y="0" text-anchor="end" dominant-baseline="central">4</text><g transform="rotate(0,0,0) translate(-51,-204) translate(51,176) rotate(0,0,0)"><text fill="" stroke="none" font-family="helvetica" font-size="14pt" font-style="normal" font-weight="normal" text-decoration="normal" x="0" y="0" text-anchor="end" dominant-baseline="central">6</text><g transform="rotate(0,0,0) translate(-51,-176) translate(51,149) rotate(0,0,0)"><text fill="" stroke="none" font-family="helvetica" font-size="14pt" font-style="normal" font-weight="normal" text-decoration="normal" x="0" y="0" text-anchor="end" dominant-baseline="central">8</text><g transform="rotate(0,0,0) translate(-51,-149) translate(51,122) rotate(0,0,0)"><text fill="" stroke="none" font-family="helvetica" font-size="14pt" font-style="normal" font-weight="normal" text-decoration="normal" x="0" y="0" text-anchor="end" dominant-baseline="central">10</text><g transform="rotate(0,0,0) translate(-51,-122) translate(51,94) rotate(0,0,0)"><text fill="" stroke="none" font-family="helvetica" font-size="14pt" font-style="normal" font-weight="normal" text-decoration="normal" x="0" y="0" text-anchor="end" dominant-baseline="central">12</text><g transform="rotate(0,0,0) translate(-51,-94) translate(51,67) rotate(0,0,0)"><text fill="" stroke="none" font-family="helvetica" font-size="14pt" font-style="normal" font-weight="normal" text-decoration="normal" x="0" y="0" text-anchor="end" dominant-baseline="central">14</text><g transform="rotate(0,0,0) translate(-51,-67) translate(51,39) rotate(0,0,0)"><text fill="" stroke="none" font-family="helvetica" font-size="14pt" font-style="normal" font-weight="normal" text-decoration="normal" x="0" y="0" text-anchor="end" dominant-baseline="central">16</text><g transform="rotate(0,0,0) translate(-51,-39) translate(51,12) rotate(0,0,0)"><text fill="" stroke="none" font-family="helvetica" font-size="14pt" font-style="normal" font-weight="normal" text-decoration="normal" x="0" y="0" text-anchor="end" dominant-baseline="central">18</text><g transform="rotate(0,0,0) translate(-51,-12) translate(23,122) rotate(-90,0,0)"><text fill="" stroke="none" font-family="helvetica" font-size="14pt" font-style="italic" font-weight="normal" text-decoration="normal" x="0" y="0" text-anchor="middle" dominant-baseline="alphabetic">Intensity</text><g transform="rotate(90,0,0) translate(-23,-122)"/></g></g></g></g></g></g></g></g></g></g></g></g></g></g></svg>